<svg width="22" height="21" viewBox="0 0 22 21" fill="none" xmlns="http://www.w3.org/2000/svg">
<path d="M1.10596 3.34711C1.10596 2.29783 1.91685 1.42695 2.96346 1.35219L10.363 0.823655C10.4579 0.816878 10.5531 0.816878 10.648 0.823655L18.0476 1.35219C19.0942 1.42695 19.9051 2.29783 19.9051 3.34711V17.0789C19.9051 18.1282 19.0942 18.9991 18.0476 19.0739L10.648 19.6024C10.5531 19.6092 10.4579 19.6092 10.363 19.6024L2.96346 19.0739C1.91685 18.9991 1.10596 18.1282 1.10596 17.0789V3.34711Z" fill="white"/>
<path fill-rule="evenodd" clip-rule="evenodd" d="M10.7497 0C7.82995 0 7.46446 0.0116102 6.31783 0.062695C5.17358 0.11378 4.39184 0.290255 3.70804 0.548581C2.99081 0.810935 2.34108 1.22221 1.80416 1.75372C1.25746 2.27571 0.834378 2.90726 0.564359 3.60438C0.298602 4.26906 0.116455 5.02895 0.0644981 6.14179C0.0125413 7.25578 0 7.61048 0 10.4492C0 13.2879 0.0119441 13.6425 0.0644981 14.7571C0.117052 15.8694 0.298602 16.6293 0.564359 17.294C0.834257 17.9911 1.25736 18.6227 1.80416 19.1446C2.40136 19.7251 3.00155 20.0827 3.70804 20.3498C4.39184 20.6081 5.17358 20.7851 6.31783 20.8356C7.46446 20.8861 7.82995 20.8983 10.7497 20.8983C13.6694 20.8983 14.0349 20.8867 15.1815 20.8356C16.3258 20.7846 17.1075 20.6081 17.7913 20.3498C18.5086 20.0874 19.1583 19.6761 19.6952 19.1446C20.2924 18.5641 20.6603 17.9807 20.935 17.294C21.2008 16.6293 21.3829 15.8694 21.4349 14.7571C21.4868 13.6425 21.4994 13.2873 21.4994 10.4492C21.4994 7.61106 21.4874 7.25578 21.4349 6.14121C21.3823 5.02895 21.2008 4.26906 20.935 3.60438C20.6651 2.90721 20.242 2.27564 19.6952 1.75372C19.1582 1.22231 18.5085 0.811052 17.7913 0.548581C17.1075 0.290255 16.3258 0.113199 15.1809 0.062695C14.0349 0.0121907 13.67 0 10.7497 0ZM10.7497 1.88259C13.6199 1.88259 13.9603 1.89362 15.0938 1.94354C16.1418 1.98999 16.711 2.16007 17.0896 2.30346C17.5913 2.49271 17.9496 2.71969 18.3258 3.08483C18.7021 3.45055 18.935 3.79885 19.1297 4.28648C19.2772 4.65452 19.4522 5.20775 19.4999 6.22654C19.5513 7.32835 19.5626 7.65924 19.5626 10.4492C19.5626 13.2391 19.5513 13.57 19.4999 14.6718C19.4522 15.6906 19.2772 16.2438 19.1297 16.6119C18.9575 17.0658 18.6828 17.4764 18.3258 17.8135C17.9496 18.1792 17.5913 18.4056 17.0896 18.5949C16.711 18.7383 16.1418 18.9083 15.0938 18.9548C13.9603 19.0047 13.6204 19.0157 10.7497 19.0157C7.87892 19.0157 7.53911 19.0047 6.40562 18.9548C5.35752 18.9083 4.78839 18.7383 4.40976 18.5949C3.9428 18.4275 3.52037 18.1605 3.17355 17.8135C2.8166 17.4764 2.54192 17.0658 2.36971 16.6119C2.2222 16.2438 2.04722 15.6906 1.99944 14.6718C1.94808 13.57 1.93674 13.2391 1.93674 10.4492C1.93674 7.65924 1.94808 7.32835 1.99944 6.22654C2.04722 5.20775 2.2222 4.65452 2.36971 4.28648C2.5644 3.79885 2.7979 3.45055 3.17355 3.08483C3.54979 2.71911 3.90811 2.49271 4.40976 2.30346C4.78839 2.16007 5.35752 1.98999 6.40562 1.94354C7.53911 1.89362 7.87952 1.88259 10.7497 1.88259Z" fill="white"/>
<path fill-rule="evenodd" clip-rule="evenodd" d="M10.747 13.9356C10.276 13.9356 9.80955 13.8454 9.37438 13.6702C8.93921 13.495 8.5438 13.2382 8.21074 12.9144C7.87768 12.5906 7.61348 12.2063 7.43322 11.7833C7.25297 11.3603 7.16019 10.9069 7.16019 10.449C7.16019 9.99114 7.25297 9.53776 7.43322 9.11474C7.61348 8.69173 7.87768 8.30737 8.21074 7.98361C8.5438 7.65985 8.93921 7.40303 9.37438 7.22782C9.80955 7.0526 10.276 6.96242 10.747 6.96242C11.6983 6.96242 12.6106 7.32975 13.2832 7.98361C13.9559 8.63748 14.3338 9.5243 14.3338 10.449C14.3338 11.3737 13.9559 12.2605 13.2832 12.9144C12.6106 13.5683 11.6983 13.9356 10.747 13.9356ZM10.747 5.07806C9.28158 5.07806 7.8762 5.64392 6.84 6.65117C5.80381 7.65842 5.22168 9.02454 5.22168 10.449C5.22168 11.8735 5.80381 13.2396 6.84 14.2468C7.8762 15.2541 9.28158 15.82 10.747 15.82C12.2124 15.82 13.6178 15.2541 14.654 14.2468C15.6902 13.2396 16.2723 11.8735 16.2723 10.449C16.2723 9.02454 15.6902 7.65842 14.654 6.65117C13.6178 5.64392 12.2124 5.07806 10.747 5.07806ZM17.88 4.98053C17.88 5.31725 17.7423 5.64017 17.4974 5.87827C17.2525 6.11636 16.9203 6.25012 16.5739 6.25012C16.2275 6.25012 15.8953 6.11636 15.6503 5.87827C15.4054 5.64017 15.2678 5.31725 15.2678 4.98053C15.2678 4.64381 15.4054 4.32089 15.6503 4.08279C15.8953 3.8447 16.2275 3.71094 16.5739 3.71094C16.9203 3.71094 17.2525 3.8447 17.4974 4.08279C17.7423 4.32089 17.88 4.64381 17.88 4.98053Z" fill="#C12D46"/>
</svg>
