<svg width="16" height="12" viewBox="0 0 16 12" fill="none" xmlns="http://www.w3.org/2000/svg">
<path d="M16 4.08403V10.6363C16 11.0109 15.8604 11.3323 15.5804 11.5997C15.3004 11.8663 14.9644 12 14.5716 12H1.42844C1.03556 12 0.699556 11.8663 0.419556 11.5997C0.139556 11.3323 0 11.0117 0 10.6363V4.08403C0.262222 4.36261 0.562667 4.60946 0.902222 4.82546C3.05689 6.22346 4.536 7.20318 5.33956 7.76632C5.67911 8.00461 5.95378 8.19146 6.16533 8.32432C6.37689 8.45803 6.65778 8.59432 7.00889 8.73318C7.36 8.87204 7.68711 8.94232 7.99111 8.94232L8 8.72743L8.00889 8.94232C8.31289 8.94232 8.64 8.87289 8.99111 8.73318C9.34222 8.59432 9.62311 8.45803 9.83467 8.32432C10.0462 8.19061 10.3209 8.00461 10.6604 7.76632C11.672 7.06775 13.1547 6.08718 15.1067 4.82632C15.4462 4.60432 15.744 4.35661 16 4.08403ZM16 1.36371C16 1.81286 15.8542 2.24143 15.5627 2.65029C15.2711 3.05914 14.9076 3.40886 14.4738 3.69857C12.2356 5.18143 10.8427 6.10457 10.2951 6.46886C10.2356 6.50829 10.1093 6.59486 9.91556 6.72857C9.72178 6.86229 9.56178 6.97029 9.43378 7.05257C9.30578 7.13486 9.15111 7.22743 8.96978 7.32943C8.78755 7.43143 8.616 7.50857 8.45511 7.56C8.29422 7.61057 8.14578 7.63629 8.00889 7.63629H8H7.99111C7.85422 7.63629 7.70578 7.61057 7.54489 7.56C7.384 7.50857 7.21244 7.43143 7.03111 7.32943C6.84978 7.22743 6.69511 7.13486 6.56711 7.05257C6.43911 6.97029 6.27822 6.86229 6.08444 6.72857C5.89067 6.59486 5.76444 6.50829 5.70489 6.46886C5.16356 6.10543 4.384 5.58686 3.36622 4.91314C2.34844 4.24029 1.73778 3.83486 1.536 3.69857C1.16622 3.46029 0.818667 3.132 0.490667 2.71457C0.162667 2.29714 0 1.90886 0 1.55143C0 1.10829 0.123556 0.738857 0.370667 0.443143C0.617778 0.147429 0.970667 0 1.42844 0H14.5716C14.9582 0 15.2933 0.133714 15.576 0.400286C15.8587 0.667714 16 0.988286 16 1.36371Z" fill="white"/>
</svg>
