<svg width="127" height="40" viewBox="0 0 127 40" fill="none" xmlns="http://www.w3.org/2000/svg">
<path d="M18.1003 11.89L16.139 4.54543C16.1221 4.48232 16.0282 4.46993 15.9919 4.52602L3.24307 24.2095C3.1967 24.2811 3.29952 24.3549 3.36691 24.2983L18.0771 11.9594C18.0982 11.9417 18.1071 11.9152 18.1003 11.89Z" fill="white"/>
<path d="M7.21227 23.3739L1.46191 28.6743C1.41249 28.7198 1.44388 28.8023 1.51107 28.8035L25.0889 29.2277C25.1746 29.2292 25.1947 29.1085 25.113 29.0823L7.28555 23.3577C7.26 23.3495 7.23201 23.3557 7.21227 23.3739Z" fill="white"/>
<path d="M22.3136 26.5374L29.775 28.8802C29.8391 28.9003 29.895 28.832 29.8626 28.7731L18.4771 8.12213C18.4357 8.04701 18.321 8.08984 18.339 8.17371L22.2631 26.4819C22.2687 26.5081 22.288 26.5293 22.3136 26.5374Z" fill="white"/>
<path d="M40.8316 3.9C41.9929 3.9 42.9029 4.17733 43.5616 4.732C44.2203 5.28667 44.5496 6.04933 44.5496 7.02C44.5496 7.99067 44.2203 8.75333 43.5616 9.308C42.9029 9.854 41.9929 10.127 40.8316 10.127H38.3876V13H37.4256V3.9H40.8316ZM40.8056 9.282C41.7069 9.282 42.3959 9.087 42.8726 8.697C43.3493 8.29833 43.5876 7.73933 43.5876 7.02C43.5876 6.28333 43.3493 5.72 42.8726 5.33C42.3959 4.93133 41.7069 4.732 40.8056 4.732H38.3876V9.282H40.8056ZM48.5967 6.11C49.4893 6.11 50.174 6.33533 50.6507 6.786C51.1273 7.228 51.3657 7.88667 51.3657 8.762V13H50.4817V11.934C50.2737 12.2893 49.966 12.5667 49.5587 12.766C49.16 12.9653 48.6833 13.065 48.1287 13.065C47.366 13.065 46.7593 12.883 46.3087 12.519C45.858 12.155 45.6327 11.674 45.6327 11.076C45.6327 10.4953 45.8407 10.0273 46.2567 9.672C46.6813 9.31667 47.353 9.139 48.2717 9.139H50.4427V8.723C50.4427 8.13367 50.278 7.68733 49.9487 7.384C49.6193 7.072 49.1383 6.916 48.5057 6.916C48.0723 6.916 47.6563 6.98967 47.2577 7.137C46.859 7.27567 46.5167 7.47067 46.2307 7.722L45.8147 7.033C46.1613 6.73833 46.5773 6.513 47.0627 6.357C47.548 6.19233 48.0593 6.11 48.5967 6.11ZM48.2717 12.337C48.7917 12.337 49.238 12.22 49.6107 11.986C49.9833 11.7433 50.2607 11.3967 50.4427 10.946V9.828H48.2977C47.1277 9.828 46.5427 10.2353 46.5427 11.05C46.5427 11.4487 46.6943 11.765 46.9977 11.999C47.301 12.2243 47.7257 12.337 48.2717 12.337ZM57.0111 9.438C57.4965 9.55067 57.8691 9.74567 58.1291 10.023C58.3978 10.3003 58.5321 10.6383 58.5321 11.037C58.5321 11.4357 58.3935 11.791 58.1161 12.103C57.8475 12.415 57.4791 12.6577 57.0111 12.831C56.5431 12.9957 56.0275 13.078 55.4641 13.078C54.9701 13.078 54.4848 13.0087 54.0081 12.87C53.5315 12.7227 53.1155 12.5103 52.7601 12.233L53.0721 11.544C53.3841 11.778 53.7481 11.96 54.1641 12.09C54.5801 12.22 55.0005 12.285 55.4251 12.285C56.0578 12.285 56.5735 12.168 56.9721 11.934C57.3795 11.6913 57.5831 11.3663 57.5831 10.959C57.5831 10.595 57.4185 10.3133 57.0891 10.114C56.7598 9.906 56.3091 9.802 55.7371 9.802H54.5671V9.126H55.6851C56.1965 9.126 56.6081 9.03067 56.9201 8.84C57.2321 8.64067 57.3881 8.37633 57.3881 8.047C57.3881 7.683 57.2105 7.397 56.8551 7.189C56.5085 6.981 56.0535 6.877 55.4901 6.877C54.7535 6.877 54.0255 7.06333 53.3061 7.436L53.0461 6.721C53.8608 6.29633 54.7058 6.084 55.5811 6.084C56.1011 6.084 56.5691 6.162 56.9851 6.318C57.4098 6.46533 57.7391 6.67767 57.9731 6.955C58.2158 7.23233 58.3371 7.553 58.3371 7.917C58.3371 8.26367 58.2158 8.57133 57.9731 8.84C57.7391 9.10867 57.4185 9.308 57.0111 9.438ZM64.1505 6.11C64.7918 6.11 65.3725 6.25733 65.8925 6.552C66.4125 6.838 66.8198 7.24533 67.1145 7.774C67.4091 8.30267 67.5565 8.905 67.5565 9.581C67.5565 10.2657 67.4091 10.8723 67.1145 11.401C66.8198 11.9297 66.4125 12.3413 65.8925 12.636C65.3811 12.922 64.8005 13.065 64.1505 13.065C63.5958 13.065 63.0931 12.9523 62.6425 12.727C62.2005 12.493 61.8365 12.155 61.5505 11.713V15.522H60.6275V6.162H61.5115V7.514C61.7888 7.06333 62.1528 6.71667 62.6035 6.474C63.0628 6.23133 63.5785 6.11 64.1505 6.11ZM64.0855 12.246C64.5621 12.246 64.9955 12.1377 65.3855 11.921C65.7755 11.6957 66.0788 11.3793 66.2955 10.972C66.5208 10.5647 66.6335 10.101 66.6335 9.581C66.6335 9.061 66.5208 8.60167 66.2955 8.203C66.0788 7.79567 65.7755 7.47933 65.3855 7.254C64.9955 7.02867 64.5621 6.916 64.0855 6.916C63.6001 6.916 63.1625 7.02867 62.7725 7.254C62.3911 7.47933 62.0878 7.79567 61.8625 8.203C61.6458 8.60167 61.5375 9.061 61.5375 9.581C61.5375 10.101 61.6458 10.5647 61.8625 10.972C62.0878 11.3793 62.3911 11.6957 62.7725 11.921C63.1625 12.1377 63.6001 12.246 64.0855 12.246ZM71.8545 6.11C72.7471 6.11 73.4318 6.33533 73.9085 6.786C74.3851 7.228 74.6235 7.88667 74.6235 8.762V13H73.7395V11.934C73.5315 12.2893 73.2238 12.5667 72.8165 12.766C72.4178 12.9653 71.9411 13.065 71.3865 13.065C70.6238 13.065 70.0171 12.883 69.5665 12.519C69.1158 12.155 68.8905 11.674 68.8905 11.076C68.8905 10.4953 69.0985 10.0273 69.5145 9.672C69.9391 9.31667 70.6108 9.139 71.5295 9.139H73.7005V8.723C73.7005 8.13367 73.5358 7.68733 73.2065 7.384C72.8771 7.072 72.3961 6.916 71.7635 6.916C71.3301 6.916 70.9141 6.98967 70.5155 7.137C70.1168 7.27567 69.7745 7.47067 69.4885 7.722L69.0725 7.033C69.4191 6.73833 69.8351 6.513 70.3205 6.357C70.8058 6.19233 71.3171 6.11 71.8545 6.11ZM71.5295 12.337C72.0495 12.337 72.4958 12.22 72.8685 11.986C73.2411 11.7433 73.5185 11.3967 73.7005 10.946V9.828H71.5555C70.3855 9.828 69.8005 10.2353 69.8005 11.05C69.8005 11.4487 69.9521 11.765 70.2555 11.999C70.5588 12.2243 70.9835 12.337 71.5295 12.337ZM80.3956 6.331C81.0282 6.331 81.5916 6.474 82.0856 6.76C82.5882 7.03733 82.9782 7.43167 83.2556 7.943C83.5329 8.44567 83.6716 9.022 83.6716 9.672C83.6716 10.3393 83.5242 10.933 83.2296 11.453C82.9436 11.9643 82.5406 12.363 82.0206 12.649C81.5006 12.935 80.9026 13.078 80.2266 13.078C79.0912 13.078 78.2116 12.6793 77.5876 11.882C76.9636 11.0847 76.6516 9.984 76.6516 8.58C76.6516 7.11533 76.9289 5.993 77.4836 5.213C78.0469 4.433 78.9222 3.90433 80.1096 3.627L83.1776 2.925L83.3336 3.77L80.4476 4.433C79.4682 4.64967 78.7489 5.03533 78.2896 5.59C77.8302 6.136 77.5789 6.94633 77.5356 8.021C77.8129 7.49233 78.1986 7.08067 78.6926 6.786C79.1866 6.48267 79.7542 6.331 80.3956 6.331ZM80.2526 12.311C80.7292 12.311 81.1539 12.2027 81.5266 11.986C81.9079 11.7607 82.2026 11.4487 82.4106 11.05C82.6272 10.6513 82.7356 10.2007 82.7356 9.698C82.7356 9.19533 82.6316 8.75333 82.4236 8.372C82.2156 7.99067 81.9209 7.696 81.5396 7.488C81.1669 7.27133 80.7379 7.163 80.2526 7.163C79.7672 7.163 79.3339 7.27133 78.9526 7.488C78.5799 7.696 78.2852 7.99067 78.0686 8.372C77.8606 8.75333 77.7566 9.19533 77.7566 9.698C77.7566 10.2007 77.8606 10.6513 78.0686 11.05C78.2852 11.4487 78.5842 11.7607 78.9656 11.986C79.3469 12.2027 79.7759 12.311 80.2526 12.311ZM88.4709 13.065C87.8122 13.065 87.2186 12.9177 86.6899 12.623C86.1612 12.3197 85.7452 11.9037 85.4419 11.375C85.1386 10.8463 84.9869 10.2483 84.9869 9.581C84.9869 8.91367 85.1386 8.31567 85.4419 7.787C85.7452 7.25833 86.1612 6.84667 86.6899 6.552C87.2186 6.25733 87.8122 6.11 88.4709 6.11C89.1296 6.11 89.7232 6.25733 90.2519 6.552C90.7806 6.84667 91.1922 7.25833 91.4869 7.787C91.7902 8.31567 91.9419 8.91367 91.9419 9.581C91.9419 10.2483 91.7902 10.8463 91.4869 11.375C91.1922 11.9037 90.7806 12.3197 90.2519 12.623C89.7232 12.9177 89.1296 13.065 88.4709 13.065ZM88.4709 12.246C88.9562 12.246 89.3896 12.1377 89.7709 11.921C90.1609 11.6957 90.4642 11.3793 90.6809 10.972C90.8976 10.5647 91.0059 10.101 91.0059 9.581C91.0059 9.061 90.8976 8.59733 90.6809 8.19C90.4642 7.78267 90.1609 7.47067 89.7709 7.254C89.3896 7.02867 88.9562 6.916 88.4709 6.916C87.9856 6.916 87.5479 7.02867 87.1579 7.254C86.7766 7.47067 86.4732 7.78267 86.2479 8.19C86.0312 8.59733 85.9229 9.061 85.9229 9.581C85.9229 10.101 86.0312 10.5647 86.2479 10.972C86.4732 11.3793 86.7766 11.6957 87.1579 11.921C87.5479 12.1377 87.9856 12.246 88.4709 12.246ZM98.4707 6.981H95.8837V13H94.9607V6.981H92.3737V6.162H98.4707V6.981ZM102.158 6.11C103.051 6.11 103.736 6.33533 104.212 6.786C104.689 7.228 104.927 7.88667 104.927 8.762V13H104.043V11.934C103.835 12.2893 103.528 12.5667 103.12 12.766C102.722 12.9653 102.245 13.065 101.69 13.065C100.928 13.065 100.321 12.883 99.8702 12.519C99.4195 12.155 99.1942 11.674 99.1942 11.076C99.1942 10.4953 99.4022 10.0273 99.8182 9.672C100.243 9.31667 100.915 9.139 101.833 9.139H104.004V8.723C104.004 8.13367 103.84 7.68733 103.51 7.384C103.181 7.072 102.7 6.916 102.067 6.916C101.634 6.916 101.218 6.98967 100.819 7.137C100.421 7.27567 100.078 7.47067 99.7922 7.722L99.3762 7.033C99.7229 6.73833 100.139 6.513 100.624 6.357C101.11 6.19233 101.621 6.11 102.158 6.11ZM101.833 12.337C102.353 12.337 102.8 12.22 103.172 11.986C103.545 11.7433 103.822 11.3967 104.004 10.946V9.828H101.859C100.689 9.828 100.104 10.2353 100.104 11.05C100.104 11.4487 100.256 11.765 100.559 11.999C100.863 12.2243 101.287 12.337 101.833 12.337ZM107.384 6.162H108.307V9.191H112.61V6.162H113.533V13H112.61V9.984H108.307V13H107.384V6.162ZM118.978 13.065C118.319 13.065 117.725 12.9177 117.197 12.623C116.668 12.3197 116.252 11.9037 115.949 11.375C115.645 10.8463 115.494 10.2483 115.494 9.581C115.494 8.91367 115.645 8.31567 115.949 7.787C116.252 7.25833 116.668 6.84667 117.197 6.552C117.725 6.25733 118.319 6.11 118.978 6.11C119.636 6.11 120.23 6.25733 120.759 6.552C121.287 6.84667 121.699 7.25833 121.994 7.787C122.297 8.31567 122.449 8.91367 122.449 9.581C122.449 10.2483 122.297 10.8463 121.994 11.375C121.699 11.9037 121.287 12.3197 120.759 12.623C120.23 12.9177 119.636 13.065 118.978 13.065ZM118.978 12.246C119.463 12.246 119.896 12.1377 120.278 11.921C120.668 11.6957 120.971 11.3793 121.188 10.972C121.404 10.5647 121.513 10.101 121.513 9.581C121.513 9.061 121.404 8.59733 121.188 8.19C120.971 7.78267 120.668 7.47067 120.278 7.254C119.896 7.02867 119.463 6.916 118.978 6.916C118.492 6.916 118.055 7.02867 117.665 7.254C117.283 7.47067 116.98 7.78267 116.755 8.19C116.538 8.59733 116.43 9.061 116.43 9.581C116.43 10.101 116.538 10.5647 116.755 10.972C116.98 11.3793 117.283 11.6957 117.665 11.921C118.055 12.1377 118.492 12.246 118.978 12.246ZM47.1646 25.464C48.0919 25.6807 48.5556 26.2397 48.5556 27.141C48.5556 27.739 48.3346 28.1983 47.8926 28.519C47.4506 28.8397 46.7919 29 45.9166 29H42.8096V22.162H45.8256C46.6056 22.162 47.2166 22.3137 47.6586 22.617C48.1006 22.9203 48.3216 23.3537 48.3216 23.917C48.3216 24.2897 48.2176 24.6103 48.0096 24.879C47.8102 25.139 47.5286 25.334 47.1646 25.464ZM43.7066 25.204H45.7606C46.2892 25.204 46.6922 25.1043 46.9696 24.905C47.2556 24.7057 47.3986 24.4153 47.3986 24.034C47.3986 23.6527 47.2556 23.3667 46.9696 23.176C46.6922 22.9853 46.2892 22.89 45.7606 22.89H43.7066V25.204ZM45.8776 28.272C46.4669 28.272 46.9089 28.1767 47.2036 27.986C47.4982 27.7953 47.6456 27.4963 47.6456 27.089C47.6456 26.6817 47.5112 26.3827 47.2426 26.192C46.9739 25.9927 46.5492 25.893 45.9686 25.893H43.7066V28.272H45.8776ZM53.4061 25.555L55.2781 23.059H56.4221L54.5891 25.555L56.4221 28.038H55.2781L53.4061 25.555ZM55.9021 25.555L57.7741 23.059H58.9181L57.0851 25.555L58.9181 28.038H57.7741L55.9021 25.555ZM63.4279 29.156C62.7086 29.156 62.0109 29.0607 61.3349 28.87C60.6676 28.6707 60.1302 28.415 59.7229 28.103L60.4379 26.517C60.8279 26.803 61.2916 27.0327 61.8289 27.206C62.3662 27.3793 62.9036 27.466 63.4409 27.466C64.0389 27.466 64.4809 27.3793 64.7669 27.206C65.0529 27.024 65.1959 26.7857 65.1959 26.491C65.1959 26.2743 65.1092 26.0967 64.9359 25.958C64.7712 25.8107 64.5546 25.6937 64.2859 25.607C64.0259 25.5203 63.6706 25.425 63.2199 25.321C62.5266 25.1563 61.9589 24.9917 61.5169 24.827C61.0749 24.6623 60.6936 24.398 60.3729 24.034C60.0609 23.67 59.9049 23.1847 59.9049 22.578C59.9049 22.0493 60.0479 21.5727 60.3339 21.148C60.6199 20.7147 61.0489 20.3723 61.6209 20.121C62.2016 19.8697 62.9079 19.744 63.7399 19.744C64.3206 19.744 64.8882 19.8133 65.4429 19.952C65.9976 20.0907 66.4829 20.29 66.8989 20.55L66.2489 22.149C65.4082 21.6723 64.5676 21.434 63.7269 21.434C63.1376 21.434 62.6999 21.5293 62.4139 21.72C62.1366 21.9107 61.9979 22.162 61.9979 22.474C61.9979 22.786 62.1582 23.02 62.4789 23.176C62.8082 23.3233 63.3066 23.4707 63.9739 23.618C64.6672 23.7827 65.2349 23.9473 65.6769 24.112C66.1189 24.2767 66.4959 24.5367 66.8079 24.892C67.1286 25.2473 67.2889 25.7283 67.2889 26.335C67.2889 26.855 67.1416 27.3317 66.8469 27.765C66.5609 28.1897 66.1276 28.5277 65.5469 28.779C64.9662 29.0303 64.2599 29.156 63.4279 29.156ZM71.4059 21.902C72.4893 21.902 73.3213 22.162 73.9019 22.682C74.4826 23.1933 74.7729 23.969 74.7729 25.009V29H72.8749V28.129C72.4936 28.779 71.7829 29.104 70.7429 29.104C70.2056 29.104 69.7376 29.013 69.3389 28.831C68.9489 28.649 68.6499 28.3977 68.4419 28.077C68.2339 27.7563 68.1299 27.3923 68.1299 26.985C68.1299 26.335 68.3726 25.8237 68.8579 25.451C69.3519 25.0783 70.1103 24.892 71.1329 24.892H72.7449C72.7449 24.45 72.6106 24.112 72.3419 23.878C72.0733 23.6353 71.6703 23.514 71.1329 23.514C70.7603 23.514 70.3919 23.5747 70.0279 23.696C69.6726 23.8087 69.3693 23.9647 69.1179 24.164L68.3899 22.747C68.7713 22.4783 69.2263 22.2703 69.7549 22.123C70.2923 21.9757 70.8426 21.902 71.4059 21.902ZM71.2499 27.739C71.5966 27.739 71.9043 27.661 72.1729 27.505C72.4416 27.3403 72.6323 27.102 72.7449 26.79V26.075H71.3539C70.5219 26.075 70.1059 26.348 70.1059 26.894C70.1059 27.154 70.2056 27.362 70.4049 27.518C70.6129 27.6653 70.8946 27.739 71.2499 27.739ZM78.8314 22.162H80.6254V23.722H78.8834V29H76.8554V23.722H75.7764V22.162H76.8554V21.85C76.8554 21.0527 77.0894 20.42 77.5574 19.952C78.034 19.484 78.7014 19.25 79.5594 19.25C79.8627 19.25 80.1487 19.2847 80.4174 19.354C80.6947 19.4147 80.9244 19.5057 81.1064 19.627L80.5734 21.096C80.3394 20.9313 80.0664 20.849 79.7544 20.849C79.139 20.849 78.8314 21.187 78.8314 21.863V22.162ZM86.1467 28.662C85.9474 28.8093 85.7004 28.922 85.4057 29C85.1197 29.0693 84.8164 29.104 84.4957 29.104C83.6637 29.104 83.018 28.8917 82.5587 28.467C82.108 28.0423 81.8827 27.4183 81.8827 26.595V23.722H80.8037V22.162H81.8827V20.459H83.9107V22.162H85.6527V23.722H83.9107V26.569C83.9107 26.8637 83.9844 27.0933 84.1317 27.258C84.2877 27.414 84.5044 27.492 84.7817 27.492C85.1024 27.492 85.3754 27.4053 85.6007 27.232L86.1467 28.662ZM93.9203 25.529C93.9203 25.555 93.9073 25.737 93.8813 26.075H88.5903C88.6856 26.5083 88.911 26.8507 89.2663 27.102C89.6216 27.3533 90.0636 27.479 90.5923 27.479C90.9563 27.479 91.277 27.427 91.5543 27.323C91.8403 27.2103 92.1046 27.037 92.3473 26.803L93.4263 27.973C92.7676 28.727 91.8056 29.104 90.5403 29.104C89.7516 29.104 89.054 28.9523 88.4473 28.649C87.8406 28.337 87.3726 27.908 87.0433 27.362C86.714 26.816 86.5493 26.1963 86.5493 25.503C86.5493 24.8183 86.7096 24.203 87.0303 23.657C87.3596 23.1023 87.806 22.6733 88.3693 22.37C88.9413 22.058 89.5783 21.902 90.2803 21.902C90.965 21.902 91.5846 22.0493 92.1393 22.344C92.694 22.6387 93.1273 23.0633 93.4393 23.618C93.76 24.164 93.9203 24.801 93.9203 25.529ZM90.2933 23.436C89.834 23.436 89.4483 23.566 89.1363 23.826C88.8243 24.086 88.6336 24.4413 88.5643 24.892H92.0093C91.94 24.45 91.7493 24.099 91.4373 23.839C91.1253 23.5703 90.744 23.436 90.2933 23.436ZM98.6505 29.104C97.9051 29.104 97.2335 28.9523 96.6355 28.649C96.0461 28.337 95.5825 27.908 95.2445 27.362C94.9151 26.816 94.7505 26.1963 94.7505 25.503C94.7505 24.8097 94.9151 24.19 95.2445 23.644C95.5825 23.098 96.0461 22.6733 96.6355 22.37C97.2335 22.058 97.9051 21.902 98.6505 21.902C99.3871 21.902 100.028 22.058 100.574 22.37C101.129 22.6733 101.532 23.111 101.783 23.683L100.21 24.528C99.8465 23.8867 99.3221 23.566 98.6375 23.566C98.1088 23.566 97.6711 23.7393 97.3245 24.086C96.9778 24.4327 96.8045 24.905 96.8045 25.503C96.8045 26.101 96.9778 26.5733 97.3245 26.92C97.6711 27.2667 98.1088 27.44 98.6375 27.44C99.3308 27.44 99.8551 27.1193 100.21 26.478L101.783 27.336C101.532 27.8907 101.129 28.324 100.574 28.636C100.028 28.948 99.3871 29.104 98.6505 29.104ZM107.151 21.902C108.018 21.902 108.716 22.162 109.244 22.682C109.782 23.202 110.05 23.9733 110.05 24.996V29H108.022V25.308C108.022 24.7533 107.901 24.3417 107.658 24.073C107.416 23.7957 107.065 23.657 106.605 23.657C106.094 23.657 105.687 23.8173 105.383 24.138C105.08 24.45 104.928 24.918 104.928 25.542V29H102.9V19.354H104.928V22.734C105.197 22.4653 105.522 22.2617 105.903 22.123C106.285 21.9757 106.701 21.902 107.151 21.902ZM111.395 28.038L113.228 25.555L111.395 23.059H112.539L114.411 25.555L112.539 28.038H111.395ZM113.891 28.038L115.724 25.555L113.891 23.059H115.035L116.907 25.555L115.035 28.038H113.891Z" fill="white"/>
</svg>
