<svg width="685" height="498" viewBox="0 0 685 498" fill="none" xmlns="http://www.w3.org/2000/svg">
<path d="M650.725 228.259V289.236L355.315 313.395C355.315 313.395 316.453 316.176 297.005 317.448C299.6 317.465 301.093 317.602 299.536 317.957L280.361 320.766C274.077 289.892 253.477 297.157 309.105 287.489L650.725 228.259Z" fill="url(#paint0_linear)"/>
<path d="M276.449 240.492L649.568 106.885L684.625 95.2495V166.145L649.568 172.509L385.384 240.492C342.003 252.481 370.574 244.335 349.292 250.052C324.933 256.594 329.881 257.683 306.796 263.351C262.972 274.112 276.729 253.261 276.449 240.492Z" fill="url(#paint1_linear)"/>
<path d="M504.706 31.9775L327.505 143.543L231.564 201.942L246.12 225.724L264.558 216.259L325.565 185.525L623.429 31.9775L676.917 0.156342H551.524L504.706 31.9775Z" fill="url(#paint2_linear)"/>
<path d="M556.323 236.137L556.238 236.137L556.191 169.036C556.188 164.622 551.271 161.014 545.265 161.018L425.511 161.103C419.505 161.107 414.592 164.722 414.595 169.136L414.604 181.914L414.612 192.408L414.658 257.813L531.217 257.731L556.239 237.195L556.238 236.204L556.323 236.137Z" fill="#C1C1C1"/>
<path d="M556.062 189.968L555.977 189.968L556.042 281.034C556.046 287.025 551.137 291.929 545.132 291.933L425.414 292.018C419.409 292.022 414.492 287.125 414.488 281.134L414.476 263.793L414.466 249.551L414.403 160.788L530.927 160.705L555.976 188.533L555.977 189.878L556.062 189.968Z" fill="#C1C1C1"/>
<path d="M554.037 185.076C554.037 184.387 553.374 183.823 552.566 183.823L411.258 183.923C410.449 183.924 409.787 184.489 409.788 185.178L409.849 272.309C409.85 272.996 410.512 273.558 411.321 273.558L501.849 273.493C502.658 273.493 503.458 273.492 503.627 273.492C503.795 273.492 504.596 273.492 505.404 273.491L527.123 273.476C527.931 273.475 529.035 273.058 529.575 272.545L553.102 250.161C553.641 249.649 554.082 248.664 554.082 247.977L554.037 185.076" fill="#F9F9F9"/>
<path d="M553.919 166.029C553.915 159.914 548.908 154.914 542.793 154.919L420.886 155.005C414.772 155.009 409.772 160.016 409.776 166.131L409.799 198.374L553.942 198.272L553.919 166.029" fill="#F9F9F9"/>
<path d="M409.857 278.497C409.861 284.612 414.868 289.611 420.983 289.607L542.89 289.521C549.004 289.516 554.004 284.51 554 278.395L553.977 246.152L409.834 246.254L409.857 278.497" fill="#F9F9F9"/>
<path d="M442.617 252.922L437.988 254.591L437.987 255.241C437.984 256.656 438.205 258.032 438.611 259.314C438.713 259.607 438.82 259.907 438.928 260.2C438.941 260.207 438.941 260.219 438.947 260.226C440.267 263.523 442.857 266.172 446.117 267.56C446.137 267.56 446.149 267.572 446.168 267.579C446.493 267.72 446.824 267.841 447.174 267.95L452.405 265.295L528.358 226.73L528.366 222.096L442.617 252.922ZM438.611 259.314C438.687 259.633 438.782 259.907 438.877 260.13C438.877 260.13 438.896 260.162 438.928 260.2C438.82 259.907 438.713 259.607 438.611 259.314ZM511.224 268.78L514.946 268.786C522.312 268.798 528.3 262.824 528.312 255.457L528.325 247.307L511.224 268.78ZM471.242 268.715L492.699 268.75L528.337 239.602L528.347 233.58L471.242 268.715ZM438.031 227.979L438.011 240.335L528.374 216.725L528.381 212.538L438.031 227.979ZM456.447 192.526L455.568 192.525L455.565 194.596L456.508 194.597C456.96 194.598 457.305 194.509 457.554 194.325C457.796 194.141 457.917 193.867 457.918 193.503C457.919 192.853 457.429 192.528 456.447 192.526V192.526ZM457.733 197.193C457.473 196.989 457.097 196.886 456.6 196.885L455.561 196.884L455.557 199.312L456.66 199.313C457.634 199.315 458.126 198.908 458.127 198.079C458.128 197.697 457.995 197.404 457.733 197.193V197.193ZM457.733 197.193C457.473 196.989 457.097 196.886 456.6 196.885L455.561 196.884L455.557 199.312L456.66 199.313C457.634 199.315 458.126 198.908 458.127 198.079C458.128 197.697 457.995 197.404 457.733 197.193V197.193ZM456.447 192.526L455.568 192.525L455.565 194.596L456.508 194.597C456.96 194.598 457.305 194.509 457.554 194.325C457.796 194.141 457.917 193.867 457.918 193.503C457.919 192.853 457.429 192.528 456.447 192.526V192.526ZM456.447 192.526L455.568 192.525L455.565 194.596L456.508 194.597C456.96 194.598 457.305 194.509 457.554 194.325C457.796 194.141 457.917 193.867 457.918 193.503C457.919 192.853 457.429 192.528 456.447 192.526V192.526ZM457.733 197.193C457.473 196.989 457.097 196.886 456.6 196.885L455.561 196.884L455.557 199.312L456.66 199.313C457.634 199.315 458.126 198.908 458.127 198.079C458.128 197.697 457.995 197.404 457.733 197.193V197.193ZM477.131 193.484C476.712 192.973 476.075 192.717 475.221 192.716L474.31 192.714L474.299 199.195L475 199.196C475.95 199.198 476.645 198.919 477.085 198.371C477.532 197.818 477.757 196.977 477.759 195.842C477.76 194.785 477.551 193.994 477.131 193.484ZM477.131 193.484C476.712 192.973 476.075 192.717 475.221 192.716L474.31 192.714L474.299 199.195L475 199.196C475.95 199.198 476.645 198.919 477.085 198.371C477.532 197.818 477.757 196.977 477.759 195.842C477.76 194.785 477.551 193.994 477.131 193.484ZM457.733 197.193C457.473 196.989 457.097 196.886 456.6 196.885L455.561 196.884L455.557 199.312L456.66 199.313C457.634 199.315 458.126 198.908 458.127 198.079C458.128 197.697 457.995 197.404 457.733 197.193V197.193ZM456.447 192.526L455.568 192.525L455.565 194.596L456.508 194.597C456.96 194.598 457.305 194.509 457.554 194.325C457.796 194.141 457.917 193.867 457.918 193.503C457.919 192.853 457.429 192.528 456.447 192.526V192.526ZM457.554 194.325C457.796 194.141 457.917 193.867 457.918 193.503C457.919 192.853 457.429 192.528 456.447 192.526L455.568 192.525L455.565 194.596L456.508 194.597C456.96 194.598 457.305 194.509 457.554 194.325V194.325ZM456.6 196.885L455.561 196.884L455.557 199.312L456.66 199.313C457.634 199.315 458.126 198.908 458.127 198.079C458.128 197.697 457.995 197.404 457.733 197.193C457.473 196.989 457.097 196.886 456.6 196.885V196.885ZM475.221 192.716L474.31 192.714L474.299 199.195L475 199.196C475.95 199.198 476.645 198.919 477.085 198.371C477.532 197.818 477.757 196.977 477.759 195.842C477.76 194.785 477.551 193.994 477.131 193.484C476.712 192.973 476.075 192.717 475.221 192.716ZM498.62 193.525C498.456 192.855 498.341 192.377 498.29 192.084C498.246 192.358 498.149 192.798 498.008 193.415C497.867 194.033 497.559 195.25 497.072 197.059L499.532 197.063L499.038 195.163C498.923 194.742 498.784 194.194 498.62 193.525V193.525ZM509.293 193.931C509.529 194.11 510.166 194.442 511.203 194.915C512.197 195.363 512.891 195.848 513.279 196.365C513.667 196.876 513.857 197.526 513.855 198.31C513.854 199.023 513.668 199.66 513.304 200.214C512.94 200.774 512.417 201.207 511.728 201.512C511.046 201.817 510.236 201.975 509.312 201.973C508.547 201.972 507.898 201.913 507.375 201.804C506.853 201.695 506.311 201.509 505.751 201.234L505.756 198.45C506.348 198.756 506.965 199 507.609 199.173C508.252 199.346 508.845 199.43 509.386 199.43C509.845 199.431 510.189 199.349 510.406 199.19C510.623 199.031 510.732 198.827 510.732 198.572C510.733 198.413 510.688 198.273 510.599 198.158C510.51 198.037 510.37 197.915 510.179 197.794C509.988 197.673 509.479 197.423 508.645 197.046C507.887 196.707 507.327 196.368 506.945 196.049C506.569 195.723 506.29 195.353 506.112 194.939C505.928 194.524 505.839 194.027 505.84 193.46C505.842 192.396 506.232 191.562 507.01 190.97C507.782 190.372 508.847 190.081 510.204 190.083C511.402 190.085 512.626 190.361 513.867 190.918L512.908 193.331C511.825 192.832 510.889 192.582 510.105 192.581C509.697 192.58 509.404 192.65 509.219 192.79C509.034 192.936 508.944 193.108 508.944 193.325C508.943 193.548 509.058 193.752 509.293 193.931V193.931ZM500.748 201.8L500.178 199.632L496.424 199.626L495.834 201.792L492.4 201.786L496.191 190.175L500.358 190.182L504.163 201.805L500.748 201.8ZM490.05 192.721L486.309 192.715L486.306 194.537L489.773 194.543L489.769 197.047L486.302 197.042L486.299 199.227L490.039 199.233L490.035 201.783L483.166 201.771L483.185 190.205L490.054 190.216L490.05 192.721ZM479.402 200.198C478.336 201.241 476.838 201.761 474.913 201.758L471.172 201.752L471.191 190.186L475.193 190.192C477.047 190.195 478.487 190.669 479.492 191.62C480.504 192.571 481.005 193.942 481.002 195.739C480.999 197.67 480.462 199.154 479.402 200.198V200.198ZM467.579 201.746L464.437 201.741L464.455 190.175L467.597 190.18L467.579 201.746ZM460.156 200.829C459.371 201.427 458.294 201.731 456.936 201.729L452.431 201.722L452.449 190.155L456.483 190.162C458.057 190.164 459.223 190.396 459.987 190.862C460.745 191.335 461.126 192.062 461.124 193.05C461.123 193.693 460.956 194.248 460.624 194.706C460.292 195.164 459.852 195.463 459.31 195.59L459.31 195.672C460.024 195.865 460.546 196.178 460.863 196.624C461.188 197.065 461.346 197.638 461.345 198.346C461.343 199.397 460.947 200.225 460.156 200.829V200.829ZM515.092 178.461L451.455 178.358C444.088 178.346 438.101 184.308 438.089 191.674L438.052 214.616L528.389 207.637L528.415 191.821C528.426 184.454 522.459 178.473 515.092 178.461V178.461ZM457.554 194.325C457.796 194.141 457.917 193.867 457.918 193.503C457.919 192.853 457.429 192.528 456.447 192.526L455.568 192.525L455.565 194.596L456.508 194.597C456.96 194.598 457.305 194.509 457.554 194.325V194.325ZM457.733 197.193C457.473 196.989 457.097 196.886 456.6 196.885L455.561 196.884L455.557 199.312L456.66 199.313C457.634 199.315 458.126 198.908 458.127 198.079C458.128 197.697 457.995 197.404 457.733 197.193V197.193ZM477.131 193.484C476.712 192.973 476.075 192.717 475.221 192.716L474.31 192.714L474.299 199.195L475 199.196C475.95 199.198 476.645 198.919 477.085 198.371C477.532 197.818 477.757 196.977 477.759 195.842C477.76 194.785 477.551 193.994 477.131 193.484ZM499.038 195.163C498.923 194.742 498.784 194.194 498.62 193.525C498.456 192.855 498.341 192.377 498.29 192.084C498.246 192.358 498.149 192.798 498.008 193.415C497.867 194.033 497.559 195.25 497.072 197.059L499.532 197.063L499.038 195.163ZM499.038 195.163C498.923 194.742 498.784 194.194 498.62 193.525C498.456 192.855 498.341 192.377 498.29 192.084C498.246 192.358 498.149 192.798 498.008 193.415C497.867 194.033 497.559 195.25 497.072 197.059L499.532 197.063L499.038 195.163ZM477.131 193.484C476.712 192.973 476.075 192.717 475.221 192.716L474.31 192.714L474.299 199.195L475 199.196C475.95 199.198 476.645 198.919 477.085 198.371C477.532 197.818 477.757 196.977 477.759 195.842C477.76 194.785 477.551 193.994 477.131 193.484ZM457.733 197.193C457.473 196.989 457.097 196.886 456.6 196.885L455.561 196.884L455.557 199.312L456.66 199.313C457.634 199.315 458.126 198.908 458.127 198.079C458.128 197.697 457.995 197.404 457.733 197.193V197.193ZM456.447 192.526L455.568 192.525L455.565 194.596L456.508 194.597C456.96 194.598 457.305 194.509 457.554 194.325C457.796 194.141 457.917 193.867 457.918 193.503C457.919 192.853 457.429 192.528 456.447 192.526V192.526ZM456.447 192.526L455.568 192.525L455.565 194.596L456.508 194.597C456.96 194.598 457.305 194.509 457.554 194.325C457.796 194.141 457.917 193.867 457.918 193.503C457.919 192.853 457.429 192.528 456.447 192.526V192.526ZM457.733 197.193C457.473 196.989 457.097 196.886 456.6 196.885L455.561 196.884L455.557 199.312L456.66 199.313C457.634 199.315 458.126 198.908 458.127 198.079C458.128 197.697 457.995 197.404 457.733 197.193V197.193ZM477.131 193.484C476.712 192.973 476.075 192.717 475.221 192.716L474.31 192.714L474.299 199.195L475 199.196C475.95 199.198 476.645 198.919 477.085 198.371C477.532 197.818 477.757 196.977 477.759 195.842C477.76 194.785 477.551 193.994 477.131 193.484ZM477.131 193.484C476.712 192.973 476.075 192.717 475.221 192.716L474.31 192.714L474.299 199.195L475 199.196C475.95 199.198 476.645 198.919 477.085 198.371C477.532 197.818 477.757 196.977 477.759 195.842C477.76 194.785 477.551 193.994 477.131 193.484ZM457.733 197.193C457.473 196.989 457.097 196.886 456.6 196.885L455.561 196.884L455.557 199.312L456.66 199.313C457.634 199.315 458.126 198.908 458.127 198.079C458.128 197.697 457.995 197.404 457.733 197.193V197.193ZM456.447 192.526L455.568 192.525L455.565 194.596L456.508 194.597C456.96 194.598 457.305 194.509 457.554 194.325C457.796 194.141 457.917 193.867 457.918 193.503C457.919 192.853 457.429 192.528 456.447 192.526V192.526ZM456.447 192.526L455.568 192.525L455.565 194.596L456.508 194.597C456.96 194.598 457.305 194.509 457.554 194.325C457.796 194.141 457.917 193.867 457.918 193.503C457.919 192.853 457.429 192.528 456.447 192.526V192.526ZM457.733 197.193C457.473 196.989 457.097 196.886 456.6 196.885L455.561 196.884L455.557 199.312L456.66 199.313C457.634 199.315 458.126 198.908 458.127 198.079C458.128 197.697 457.995 197.404 457.733 197.193V197.193ZM457.733 197.193C457.473 196.989 457.097 196.886 456.6 196.885L455.561 196.884L455.557 199.312L456.66 199.313C457.634 199.315 458.126 198.908 458.127 198.079C458.128 197.697 457.995 197.404 457.733 197.193V197.193ZM456.447 192.526L455.568 192.525L455.565 194.596L456.508 194.597C456.96 194.598 457.305 194.509 457.554 194.325C457.796 194.141 457.917 193.867 457.918 193.503C457.919 192.853 457.429 192.528 456.447 192.526" fill="url(#paint3_linear)"/>
<path d="M372.886 254.945L372.891 254.984L331.175 260.451C328.43 260.811 326.48 263.356 326.841 266.106L334.029 320.948C334.389 323.699 336.929 325.655 339.673 325.296L347.617 324.255L354.141 323.4L394.803 318.07L387.807 264.691L373.549 254.897L372.933 254.978L372.886 254.945Z" fill="#C1C1C1"/>
<path d="M336.975 256.867C336.604 256.915 336.34 257.258 336.389 257.628L344.867 322.312C344.915 322.682 345.258 322.946 345.629 322.897L392.455 316.76C392.824 316.712 393.087 316.369 393.039 315.999L387.608 274.559C387.559 274.189 387.511 273.823 387.501 273.745C387.491 273.668 387.443 273.302 387.394 272.932L386.091 262.99C386.043 262.62 385.753 262.144 385.445 261.933L372.012 252.732C371.704 252.521 371.148 252.388 370.779 252.436L336.975 256.867Z" fill="#F9F9F9"/>
<path d="M328.191 258.018C325.39 258.385 323.398 260.978 323.765 263.779L331.084 319.623C331.452 322.424 334.044 324.416 336.845 324.049L351.615 322.113L342.961 256.082L328.191 258.018" fill="#F9F9F9"/>
<path d="M387.365 272.709L372.569 263.486L371.985 259.028L384.727 261.525C384.727 261.525 385.931 261.767 386.13 263.282C386.328 264.797 387.365 272.709 387.365 272.709" fill="#D2DDE6"/>
<path d="M384.956 262.133C385.325 262.084 385.377 261.872 385.069 261.661L380.144 258.29C379.837 258.079 379.333 257.733 379.025 257.522L371.636 252.46C371.328 252.248 371.115 252.379 371.163 252.749L372.442 262.509C372.491 262.879 372.547 263.311 372.568 263.467C372.588 263.623 372.908 263.712 373.28 263.663L384.956 262.133" fill="white"/>
<path d="M374.64 275.155C372.847 275.39 371.581 277.038 371.816 278.827C371.864 279.195 371.983 279.53 372.138 279.844L367.936 284.367C367.28 283.298 366.041 282.653 364.72 282.826C364.217 282.892 363.757 283.078 363.358 283.343L356.146 275.844C356.143 275.703 356.152 275.563 356.134 275.42C355.899 273.63 354.248 272.366 352.458 272.6C350.668 272.835 349.403 274.483 349.638 276.271C349.661 276.45 349.707 276.617 349.756 276.784L344.595 285.237C344.15 285.091 343.67 285.031 343.173 285.096C341.384 285.331 340.115 286.983 340.349 288.772C340.584 290.562 342.237 291.829 344.026 291.594C345.815 291.36 347.081 289.712 346.846 287.923C346.746 287.156 346.379 286.499 345.862 286.003L350.627 278.201C351.32 278.862 352.287 279.232 353.31 279.098C354.348 278.962 355.196 278.342 355.693 277.505L362.339 284.415C361.978 285.026 361.801 285.747 361.9 286.498C362.134 288.288 363.782 289.558 365.571 289.323C367.233 289.105 368.427 287.664 368.406 286.028L373.078 281.003C373.743 281.511 374.596 281.77 375.491 281.652C377.281 281.418 378.545 279.767 378.311 277.977C378.076 276.187 376.43 274.92 374.64 275.155ZM343.834 290.13C342.85 290.259 341.944 289.566 341.815 288.583C341.686 287.599 342.382 286.692 343.366 286.563C344.35 286.434 345.253 287.131 345.382 288.115C345.512 289.099 344.818 290.001 343.834 290.13ZM353.118 277.63C352.134 277.759 351.232 277.065 351.103 276.082C350.974 275.098 351.667 274.196 352.651 274.067C353.635 273.938 354.541 274.631 354.67 275.614C354.798 276.598 354.102 277.501 353.118 277.63ZM365.38 287.858C364.4 287.986 363.493 287.29 363.364 286.306C363.236 285.322 363.932 284.419 364.912 284.291C365.896 284.162 366.803 284.854 366.932 285.838C367.06 286.823 366.364 287.729 365.38 287.858ZM375.299 280.183C374.316 280.312 373.409 279.619 373.28 278.636C373.151 277.652 373.848 276.749 374.832 276.62C375.816 276.491 376.718 277.184 376.847 278.168C376.977 279.152 376.283 280.054 375.299 280.183ZM381.091 299.187L379.132 284.239C379.08 283.836 378.711 283.55 378.304 283.603L373.273 284.262C372.87 284.315 372.584 284.687 372.637 285.09L374.596 300.038L370.354 300.594L369.099 291.015C369.046 290.612 368.674 290.326 368.271 290.379L363.239 291.038C362.836 291.091 362.55 291.464 362.603 291.867L363.859 301.445L359.617 302.001L356.955 281.685C356.902 281.282 356.53 280.996 356.127 281.049L351.095 281.709C350.688 281.762 350.406 282.134 350.459 282.537L353.121 302.853L348.877 303.409L347.621 293.83C347.568 293.427 347.2 293.141 346.793 293.194L341.761 293.853C341.358 293.906 341.072 294.278 341.125 294.681L342.381 304.26L338.372 304.786L338.563 306.25L386.327 299.99L386.135 298.526L381.091 299.187ZM347.412 303.601L343.845 304.068L342.685 295.222L346.253 294.754L347.412 303.601ZM358.153 302.193L354.586 302.661L352.019 283.077L355.586 282.609L358.153 302.193ZM368.89 300.786L365.323 301.253L364.163 292.407L367.731 291.939L368.89 300.786ZM379.628 299.379L376.06 299.846L374.197 285.631L377.764 285.163L379.627 299.379L379.628 299.379Z" fill="url(#paint4_linear)"/>
<path d="M377.766 285.165L379.629 299.38L376.061 299.848L374.198 285.632L377.766 285.165ZM352.02 283.079L354.587 302.663L358.154 302.196L355.587 282.611L352.02 283.079Z" fill="#F0CD65"/>
<path d="M367.729 291.938L368.889 300.785L365.321 301.252L364.162 292.406L367.729 291.938ZM342.684 295.221L343.844 304.067L347.411 303.6L346.251 294.753L342.684 295.221Z" fill="#FF9E2C"/>
<path d="M318.93 131.145L318.971 131.145L318.971 175.355C318.971 178.264 321.356 180.643 324.271 180.643L382.391 180.643C385.306 180.643 387.691 178.264 387.691 175.355L387.691 166.937L387.691 160.022L387.691 116.93L331.122 116.93L318.971 130.448L318.971 131.101L318.93 131.145Z" fill="#C1C1C1"/>
<path d="M316.753 164.971C316.753 165.364 317.074 165.685 317.466 165.685L386.016 165.685C386.409 165.685 386.73 165.364 386.73 164.971L386.73 115.345C386.73 114.954 386.409 114.634 386.016 114.634L342.1 114.634C341.708 114.634 341.32 114.634 341.238 114.634C341.156 114.634 340.768 114.634 340.375 114.634L329.84 114.634C329.447 114.634 328.912 114.871 328.65 115.163L317.229 127.902C316.967 128.194 316.753 128.755 316.753 129.146L316.753 164.971" fill="#F9F9F9"/>
<path d="M316.753 174.277C316.753 177.246 319.181 179.675 322.15 179.675L381.333 179.675C384.301 179.675 386.73 177.246 386.73 174.277L386.73 158.624L316.753 158.624L316.753 174.277" fill="#F9F9F9"/>
<path d="M340.138 114.634L328.508 128.79L323.784 128.79L328.125 115.855C328.125 115.855 328.541 114.634 330.147 114.634C331.752 114.634 340.138 114.634 340.138 114.634" fill="#D2DDE6"/>
<path d="M328.788 115.703C328.788 115.312 328.573 115.228 328.312 115.52L324.127 120.191C323.865 120.482 323.436 120.96 323.174 121.252L316.891 128.259C316.628 128.551 316.736 128.792 317.128 128.792L327.471 128.792C327.864 128.792 328.321 128.792 328.486 128.792C328.652 128.792 328.788 128.471 328.788 128.077L328.788 115.703" fill="white"/>
<path d="M338.214 140.978V141.617H349.926V140.978H338.214ZM338.214 143.173V143.812H349.926V143.173H338.214ZM338.214 145.363V146.003H349.926V145.363H338.214ZM338.214 147.555V148.195H349.926V147.555H338.214ZM338.214 149.75V150.39H349.926V149.75H338.214ZM355.135 138.522C355.075 138.454 354.99 138.417 354.899 138.417H351.528V139.056H354.756L358.164 142.803L358.638 142.373L355.135 138.522ZM360.31 139.243C359.237 139.243 358.231 139.524 357.357 140.015L358.251 140.998C358.874 140.696 359.572 140.524 360.31 140.524C361.361 140.524 362.326 140.869 363.114 141.445L360.036 144.656H355.585C355.714 143.711 356.117 142.854 356.716 142.166L355.853 141.214C354.864 142.291 354.257 143.724 354.257 145.296C354.257 148.632 356.97 151.348 360.31 151.348C361.292 151.348 362.22 151.107 363.039 150.691L362.294 149.631C361.692 149.909 361.017 150.068 360.31 150.068C357.895 150.068 355.899 148.267 355.584 145.936H360.31C360.482 145.936 360.651 145.865 360.77 145.74L364.039 142.329C364.689 143.145 365.082 144.175 365.082 145.296C365.082 146.526 364.611 147.647 363.842 148.494L364.598 149.564C365.688 148.47 366.362 146.96 366.362 145.296C366.364 141.96 363.647 139.243 360.31 139.243ZM364.396 150.39L362.201 147.263L361.676 147.633L363.965 150.891C364.026 150.979 364.124 151.03 364.229 151.03H368.876V150.39H364.396V150.39ZM364.396 150.39L362.201 147.263L361.676 147.633L363.965 150.891C364.026 150.979 364.124 151.03 364.229 151.03H368.876V150.39H364.396V150.39ZM360.31 150.068C357.896 150.068 355.9 148.267 355.585 145.936H360.31C360.483 145.936 360.652 145.865 360.771 145.74L364.039 142.329C364.69 143.145 365.082 144.175 365.082 145.296C365.082 146.526 364.611 147.647 363.843 148.494L364.598 149.564C365.689 148.47 366.363 146.96 366.363 145.296C366.363 141.96 363.647 139.244 360.31 139.244C359.237 139.244 358.231 139.525 357.357 140.016L358.251 140.999C358.874 140.697 359.572 140.524 360.31 140.524C361.361 140.524 362.326 140.87 363.114 141.445L360.036 144.657H355.585C355.714 143.711 356.117 142.855 356.716 142.167L355.853 141.215C354.864 142.292 354.257 143.725 354.257 145.296C354.257 148.633 356.97 151.349 360.31 151.349C361.292 151.349 362.22 151.108 363.039 150.692L362.294 149.632C361.693 149.909 361.019 150.068 360.31 150.068ZM358.163 142.803L358.637 142.374L355.135 138.523C355.075 138.455 354.99 138.417 354.899 138.417H351.528V139.057H354.756L358.163 142.803ZM338.214 150.39H349.926V149.75H338.214V150.39ZM338.214 148.195H349.926V147.555H338.214V148.195ZM338.214 146.004H349.926V145.364H338.214V146.004ZM338.214 143.812H349.926V143.173H338.214V143.812ZM338.214 141.617H349.926V140.978H338.214V141.617ZM371.681 132.923H334.675C334.499 132.923 334.356 133.069 334.356 133.245V158.631C334.356 158.807 334.499 158.949 334.675 158.949H371.681C371.857 158.949 372.002 158.807 372.002 158.631V133.245C372.002 133.069 371.857 132.923 371.681 132.923ZM371.363 158.308H334.996V133.563H371.363V158.308V158.308ZM362.201 147.263L361.676 147.633L363.965 150.891C364.026 150.979 364.124 151.03 364.229 151.03H368.876V150.39H364.395L362.201 147.263ZM360.31 140.524C361.361 140.524 362.326 140.869 363.114 141.445L360.036 144.656H355.585C355.714 143.711 356.117 142.854 356.716 142.166L355.853 141.214C354.864 142.291 354.257 143.724 354.257 145.296C354.257 148.632 356.97 151.348 360.31 151.348C361.292 151.348 362.22 151.107 363.039 150.691L362.294 149.631C361.692 149.909 361.017 150.068 360.31 150.068C357.895 150.068 355.899 148.267 355.584 145.936H360.31C360.482 145.936 360.651 145.865 360.77 145.74L364.039 142.329C364.689 143.145 365.082 144.175 365.082 145.296C365.082 146.526 364.611 147.647 363.842 148.494L364.598 149.564C365.688 148.47 366.362 146.96 366.362 145.296C366.362 141.96 363.646 139.244 360.31 139.244C359.236 139.244 358.23 139.525 357.356 140.016L358.25 140.999C358.875 140.696 359.573 140.524 360.31 140.524ZM358.163 142.803L358.637 142.374L355.135 138.523C355.075 138.455 354.99 138.417 354.899 138.417H351.528V139.057H354.756L358.163 142.803ZM349.926 149.75H338.214V150.39H349.926V149.75ZM349.926 147.555H338.214V148.195H349.926V147.555ZM349.926 145.363H338.214V146.003H349.926V145.363ZM349.926 143.173H338.214V143.812H349.926V143.173ZM349.926 140.978H338.214V141.617H349.926V140.978ZM371.681 132.923H334.675C334.499 132.923 334.356 133.069 334.356 133.245V158.631C334.356 158.807 334.499 158.949 334.675 158.949H371.681C371.857 158.949 372.002 158.807 372.002 158.631V133.245C372.002 133.069 371.857 132.923 371.681 132.923ZM371.363 158.308H334.996V133.563H371.363V158.308V158.308ZM362.201 147.263L361.676 147.633L363.965 150.891C364.026 150.979 364.124 151.03 364.229 151.03H368.876V150.39H364.395L362.201 147.263ZM360.31 140.524C361.361 140.524 362.326 140.869 363.114 141.445L360.036 144.656H355.585C355.714 143.711 356.117 142.854 356.716 142.166L355.853 141.214C354.864 142.291 354.257 143.724 354.257 145.296C354.257 148.632 356.97 151.348 360.31 151.348C361.292 151.348 362.22 151.107 363.039 150.691L362.294 149.631C361.692 149.909 361.017 150.068 360.31 150.068C357.895 150.068 355.899 148.267 355.584 145.936H360.31C360.482 145.936 360.651 145.865 360.77 145.74L364.039 142.329C364.689 143.145 365.082 144.175 365.082 145.296C365.082 146.526 364.611 147.647 363.842 148.494L364.598 149.564C365.688 148.47 366.362 146.96 366.362 145.296C366.362 141.96 363.646 139.244 360.31 139.244C359.236 139.244 358.23 139.525 357.356 140.016L358.25 140.999C358.875 140.696 359.573 140.524 360.31 140.524ZM358.163 142.803L358.637 142.374L355.135 138.523C355.075 138.455 354.99 138.417 354.899 138.417H351.528V139.057H354.756L358.163 142.803ZM349.926 149.75H338.214V150.39H349.926V149.75ZM349.926 147.555H338.214V148.195H349.926V147.555ZM349.926 145.363H338.214V146.003H349.926V145.363ZM349.926 143.173H338.214V143.812H349.926V143.173ZM349.926 140.978H338.214V141.617H349.926V140.978ZM378.391 159.982H374.235V132.601C374.235 131.541 373.375 130.681 372.315 130.681H334.041C332.985 130.681 332.121 131.541 332.121 132.601V159.982H327.969C327.616 159.982 327.328 160.27 327.328 160.622V161.201C327.328 162.966 328.764 164.402 330.529 164.402H375.827C377.595 164.402 379.031 162.966 379.031 161.201V160.622C379.031 160.27 378.743 159.982 378.391 159.982ZM333.401 132.601C333.401 132.249 333.688 131.961 334.041 131.961H372.313C372.666 131.961 372.953 132.249 372.953 132.601V159.914H333.401V132.601ZM375.827 163.122H330.529C329.489 163.122 328.643 162.295 328.609 161.262H377.747C377.716 162.295 376.867 163.122 375.827 163.122ZM371.681 132.923H334.675C334.499 132.923 334.356 133.069 334.356 133.245V158.631C334.356 158.807 334.499 158.949 334.675 158.949H371.681C371.857 158.949 372.002 158.807 372.002 158.631V133.245C372.002 133.069 371.857 132.923 371.681 132.923ZM371.363 158.308H334.996V133.563H371.363V158.308V158.308ZM362.201 147.263L361.676 147.633L363.965 150.891C364.026 150.979 364.124 151.03 364.229 151.03H368.876V150.39H364.395L362.201 147.263ZM360.31 140.524C361.361 140.524 362.326 140.869 363.114 141.445L360.036 144.656H355.585C355.714 143.711 356.117 142.854 356.716 142.166L355.853 141.214C354.864 142.291 354.257 143.724 354.257 145.296C354.257 148.632 356.97 151.348 360.31 151.348C361.292 151.348 362.22 151.107 363.039 150.691L362.294 149.631C361.692 149.909 361.017 150.068 360.31 150.068C357.895 150.068 355.899 148.267 355.584 145.936H360.31C360.482 145.936 360.651 145.865 360.77 145.74L364.039 142.329C364.689 143.145 365.082 144.175 365.082 145.296C365.082 146.526 364.611 147.647 363.842 148.494L364.598 149.564C365.688 148.47 366.362 146.96 366.362 145.296C366.362 141.96 363.646 139.244 360.31 139.244C359.236 139.244 358.23 139.525 357.356 140.016L358.25 140.999C358.875 140.696 359.573 140.524 360.31 140.524ZM358.163 142.803L358.637 142.374L355.135 138.523C355.075 138.455 354.99 138.417 354.899 138.417H351.528V139.057H354.756L358.163 142.803ZM349.926 149.75H338.214V150.39H349.926V149.75ZM349.926 147.555H338.214V148.195H349.926V147.555ZM349.926 145.363H338.214V146.003H349.926V145.363ZM349.926 143.173H338.214V143.812H349.926V143.173ZM349.926 140.978H338.214V141.617H349.926V140.978ZM338.214 140.978V141.617H349.926V140.978H338.214ZM338.214 143.173V143.812H349.926V143.173H338.214ZM338.214 145.363V146.003H349.926V145.363H338.214ZM338.214 147.555V148.195H349.926V147.555H338.214ZM338.214 149.75V150.39H349.926V149.75H338.214ZM355.135 138.522C355.075 138.454 354.99 138.417 354.899 138.417H351.528V139.056H354.756L358.164 142.803L358.638 142.373L355.135 138.522ZM360.31 139.243C359.237 139.243 358.231 139.524 357.357 140.015L358.251 140.998C358.874 140.696 359.572 140.524 360.31 140.524C361.361 140.524 362.326 140.869 363.114 141.445L360.036 144.656H355.585C355.714 143.711 356.117 142.854 356.716 142.166L355.853 141.214C354.864 142.291 354.257 143.724 354.257 145.296C354.257 148.632 356.97 151.348 360.31 151.348C361.292 151.348 362.22 151.107 363.039 150.691L362.294 149.631C361.692 149.909 361.017 150.068 360.31 150.068C357.895 150.068 355.899 148.267 355.584 145.936H360.31C360.482 145.936 360.651 145.865 360.77 145.74L364.039 142.329C364.689 143.145 365.082 144.175 365.082 145.296C365.082 146.526 364.611 147.647 363.842 148.494L364.598 149.564C365.688 148.47 366.362 146.96 366.362 145.296C366.364 141.96 363.647 139.243 360.31 139.243ZM364.396 150.39L362.201 147.263L361.676 147.633L363.965 150.891C364.026 150.979 364.124 151.03 364.229 151.03H368.876V150.39H364.396V150.39ZM364.396 150.39L362.201 147.263L361.676 147.633L363.965 150.891C364.026 150.979 364.124 151.03 364.229 151.03H368.876V150.39H364.396V150.39ZM360.31 150.068C357.896 150.068 355.9 148.267 355.585 145.936H360.31C360.483 145.936 360.652 145.865 360.771 145.74L364.039 142.329C364.69 143.145 365.082 144.175 365.082 145.296C365.082 146.526 364.611 147.647 363.843 148.494L364.598 149.564C365.689 148.47 366.363 146.96 366.363 145.296C366.363 141.96 363.647 139.244 360.31 139.244C359.237 139.244 358.231 139.525 357.357 140.016L358.251 140.999C358.874 140.697 359.572 140.524 360.31 140.524C361.361 140.524 362.326 140.87 363.114 141.445L360.036 144.657H355.585C355.714 143.711 356.117 142.855 356.716 142.167L355.853 141.215C354.864 142.292 354.257 143.725 354.257 145.296C354.257 148.633 356.97 151.349 360.31 151.349C361.292 151.349 362.22 151.108 363.039 150.692L362.294 149.632C361.693 149.909 361.019 150.068 360.31 150.068ZM358.163 142.803L358.637 142.374L355.135 138.523C355.075 138.455 354.99 138.417 354.899 138.417H351.528V139.057H354.756L358.163 142.803ZM338.214 150.39H349.926V149.75H338.214V150.39ZM338.214 148.195H349.926V147.555H338.214V148.195ZM338.214 146.004H349.926V145.364H338.214V146.004ZM338.214 143.812H349.926V143.173H338.214V143.812ZM338.214 141.617H349.926V140.978H338.214V141.617ZM371.681 132.923H334.675C334.499 132.923 334.356 133.069 334.356 133.245V158.631C334.356 158.807 334.499 158.949 334.675 158.949H371.681C371.857 158.949 372.002 158.807 372.002 158.631V133.245C372.002 133.069 371.857 132.923 371.681 132.923ZM371.363 158.308H334.996V133.563H371.363V158.308V158.308ZM362.201 147.263L361.676 147.633L363.965 150.891C364.026 150.979 364.124 151.03 364.229 151.03H368.876V150.39H364.395L362.201 147.263ZM360.31 140.524C361.361 140.524 362.326 140.869 363.114 141.445L360.036 144.656H355.585C355.714 143.711 356.117 142.854 356.716 142.166L355.853 141.214C354.864 142.291 354.257 143.724 354.257 145.296C354.257 148.632 356.97 151.348 360.31 151.348C361.292 151.348 362.22 151.107 363.039 150.691L362.294 149.631C361.692 149.909 361.017 150.068 360.31 150.068C357.895 150.068 355.899 148.267 355.584 145.936H360.31C360.482 145.936 360.651 145.865 360.77 145.74L364.039 142.329C364.689 143.145 365.082 144.175 365.082 145.296C365.082 146.526 364.611 147.647 363.842 148.494L364.598 149.564C365.688 148.47 366.362 146.96 366.362 145.296C366.362 141.96 363.646 139.244 360.31 139.244C359.236 139.244 358.23 139.525 357.356 140.016L358.25 140.999C358.875 140.696 359.573 140.524 360.31 140.524ZM358.163 142.803L358.637 142.374L355.135 138.523C355.075 138.455 354.99 138.417 354.899 138.417H351.528V139.057H354.756L358.163 142.803ZM349.926 149.75H338.214V150.39H349.926V149.75ZM349.926 147.555H338.214V148.195H349.926V147.555ZM349.926 145.363H338.214V146.003H349.926V145.363ZM349.926 143.173H338.214V143.812H349.926V143.173ZM349.926 140.978H338.214V141.617H349.926V140.978ZM338.214 140.978V141.617H349.926V140.978H338.214ZM338.214 143.173V143.812H349.926V143.173H338.214ZM338.214 145.363V146.003H349.926V145.363H338.214ZM338.214 147.555V148.195H349.926V147.555H338.214ZM338.214 149.75V150.39H349.926V149.75H338.214ZM355.135 138.522C355.075 138.454 354.99 138.417 354.899 138.417H351.528V139.056H354.756L358.164 142.803L358.638 142.373L355.135 138.522ZM360.31 139.243C359.237 139.243 358.231 139.524 357.357 140.015L358.251 140.998C358.874 140.696 359.572 140.524 360.31 140.524C361.361 140.524 362.326 140.869 363.114 141.445L360.036 144.656H355.585C355.714 143.711 356.117 142.854 356.716 142.166L355.853 141.214C354.864 142.291 354.257 143.724 354.257 145.296C354.257 148.632 356.97 151.348 360.31 151.348C361.292 151.348 362.22 151.107 363.039 150.691L362.294 149.631C361.692 149.909 361.017 150.068 360.31 150.068C357.895 150.068 355.899 148.267 355.584 145.936H360.31C360.482 145.936 360.651 145.865 360.77 145.74L364.039 142.329C364.689 143.145 365.082 144.175 365.082 145.296C365.082 146.526 364.611 147.647 363.842 148.494L364.598 149.564C365.688 148.47 366.362 146.96 366.362 145.296C366.364 141.96 363.647 139.243 360.31 139.243ZM364.396 150.39L362.201 147.263L361.676 147.633L363.965 150.891C364.026 150.979 364.124 151.03 364.229 151.03H368.876V150.39H364.396V150.39ZM364.396 150.39L362.201 147.263L361.676 147.633L363.965 150.891C364.026 150.979 364.124 151.03 364.229 151.03H368.876V150.39H364.396V150.39ZM360.31 150.068C357.896 150.068 355.9 148.267 355.585 145.936H360.31C360.483 145.936 360.652 145.865 360.771 145.74L364.039 142.329C364.69 143.145 365.082 144.175 365.082 145.296C365.082 146.526 364.611 147.647 363.843 148.494L364.598 149.564C365.689 148.47 366.363 146.96 366.363 145.296C366.363 141.96 363.647 139.244 360.31 139.244C359.237 139.244 358.231 139.525 357.357 140.016L358.251 140.999C358.874 140.697 359.572 140.524 360.31 140.524C361.361 140.524 362.326 140.87 363.114 141.445L360.036 144.657H355.585C355.714 143.711 356.117 142.855 356.716 142.167L355.853 141.215C354.864 142.292 354.257 143.725 354.257 145.296C354.257 148.633 356.97 151.349 360.31 151.349C361.292 151.349 362.22 151.108 363.039 150.692L362.294 149.632C361.693 149.909 361.019 150.068 360.31 150.068ZM358.163 142.803L358.637 142.374L355.135 138.523C355.075 138.455 354.99 138.417 354.899 138.417H351.528V139.057H354.756L358.163 142.803ZM338.214 150.39H349.926V149.75H338.214V150.39ZM338.214 148.195H349.926V147.555H338.214V148.195ZM338.214 146.004H349.926V145.364H338.214V146.004ZM338.214 143.812H349.926V143.173H338.214V143.812ZM338.214 141.617H349.926V140.978H338.214V141.617ZM371.681 132.923H334.675C334.499 132.923 334.356 133.069 334.356 133.245V158.631C334.356 158.807 334.499 158.949 334.675 158.949H371.681C371.857 158.949 372.002 158.807 372.002 158.631V133.245C372.002 133.069 371.857 132.923 371.681 132.923ZM371.363 158.308H334.996V133.563H371.363V158.308V158.308ZM362.201 147.263L361.676 147.633L363.965 150.891C364.026 150.979 364.124 151.03 364.229 151.03H368.876V150.39H364.395L362.201 147.263ZM360.31 140.524C361.361 140.524 362.326 140.869 363.114 141.445L360.036 144.656H355.585C355.714 143.711 356.117 142.854 356.716 142.166L355.853 141.214C354.864 142.291 354.257 143.724 354.257 145.296C354.257 148.632 356.97 151.348 360.31 151.348C361.292 151.348 362.22 151.107 363.039 150.691L362.294 149.631C361.692 149.909 361.017 150.068 360.31 150.068C357.895 150.068 355.899 148.267 355.584 145.936H360.31C360.482 145.936 360.651 145.865 360.77 145.74L364.039 142.329C364.689 143.145 365.082 144.175 365.082 145.296C365.082 146.526 364.611 147.647 363.842 148.494L364.598 149.564C365.688 148.47 366.362 146.96 366.362 145.296C366.362 141.96 363.646 139.244 360.31 139.244C359.236 139.244 358.23 139.525 357.356 140.016L358.25 140.999C358.875 140.696 359.573 140.524 360.31 140.524ZM358.163 142.803L358.637 142.374L355.135 138.523C355.075 138.455 354.99 138.417 354.899 138.417H351.528V139.057H354.756L358.163 142.803ZM349.926 149.75H338.214V150.39H349.926V149.75ZM349.926 147.555H338.214V148.195H349.926V147.555ZM349.926 145.363H338.214V146.003H349.926V145.363ZM349.926 143.173H338.214V143.812H349.926V143.173ZM349.926 140.978H338.214V141.617H349.926V140.978ZM338.214 140.978V141.617H349.926V140.978H338.214ZM338.214 143.173V143.812H349.926V143.173H338.214ZM338.214 145.363V146.003H349.926V145.363H338.214ZM338.214 147.555V148.195H349.926V147.555H338.214ZM338.214 149.75V150.39H349.926V149.75H338.214ZM355.135 138.522C355.075 138.454 354.99 138.417 354.899 138.417H351.528V139.056H354.756L358.164 142.803L358.638 142.373L355.135 138.522ZM360.31 139.243C359.237 139.243 358.231 139.524 357.357 140.015L358.251 140.998C358.874 140.696 359.572 140.524 360.31 140.524C361.361 140.524 362.326 140.869 363.114 141.445L360.036 144.656H355.585C355.714 143.711 356.117 142.854 356.716 142.166L355.853 141.214C354.864 142.291 354.257 143.724 354.257 145.296C354.257 148.632 356.97 151.348 360.31 151.348C361.292 151.348 362.22 151.107 363.039 150.691L362.294 149.631C361.692 149.909 361.017 150.068 360.31 150.068C357.895 150.068 355.899 148.267 355.584 145.936H360.31C360.482 145.936 360.651 145.865 360.77 145.74L364.039 142.329C364.689 143.145 365.082 144.175 365.082 145.296C365.082 146.526 364.611 147.647 363.842 148.494L364.598 149.564C365.688 148.47 366.362 146.96 366.362 145.296C366.364 141.96 363.647 139.243 360.31 139.243ZM364.396 150.39L362.201 147.263L361.676 147.633L363.965 150.891C364.026 150.979 364.124 151.03 364.229 151.03H368.876V150.39H364.396V150.39ZM360.31 139.243C359.237 139.243 358.231 139.524 357.357 140.015L358.251 140.998C358.874 140.696 359.572 140.524 360.31 140.524C361.361 140.524 362.326 140.869 363.114 141.445L360.036 144.656H355.585C355.714 143.711 356.117 142.854 356.716 142.166L355.853 141.214C354.864 142.291 354.257 143.724 354.257 145.296C354.257 148.632 356.97 151.348 360.31 151.348C361.292 151.348 362.22 151.107 363.039 150.691L362.294 149.631C361.692 149.909 361.017 150.068 360.31 150.068C357.895 150.068 355.899 148.267 355.584 145.936H360.31C360.482 145.936 360.651 145.865 360.77 145.74L364.039 142.329C364.689 143.145 365.082 144.175 365.082 145.296C365.082 146.526 364.611 147.647 363.842 148.494L364.598 149.564C365.688 148.47 366.362 146.96 366.362 145.296C366.364 141.96 363.647 139.243 360.31 139.243ZM355.135 138.522C355.075 138.454 354.99 138.417 354.899 138.417H351.528V139.056H354.756L358.164 142.803L358.638 142.373L355.135 138.522ZM364.396 150.39L362.201 147.263L361.676 147.633L363.965 150.891C364.026 150.979 364.124 151.03 364.229 151.03H368.876V150.39H364.396V150.39ZM338.214 140.978V141.617H349.926V140.978H338.214ZM338.214 143.173V143.812H349.926V143.173H338.214ZM338.214 145.363V146.003H349.926V145.363H338.214ZM338.214 147.555V148.195H349.926V147.555H338.214ZM338.214 149.75V150.39H349.926V149.75H338.214Z" fill="url(#paint5_linear)"/>
<path d="M377.746 161.262C377.715 162.295 376.865 163.122 375.826 163.122H330.528C329.488 163.122 328.641 162.295 328.607 161.262H377.746Z" fill="#FF9E2C"/>
<path d="M334.995 133.566V158.312H371.361V133.566H334.995ZM349.925 150.393H338.212V149.753H349.925V150.393ZM349.925 148.198H338.212V147.558H349.925V148.198ZM349.925 146.007H338.212V145.368H349.925V146.007ZM349.925 143.816H338.212V143.176H349.925V143.816ZM349.925 141.621H338.212V140.981H349.925V141.621ZM351.527 138.42H354.897C354.988 138.42 355.073 138.457 355.134 138.525L358.636 142.376L358.161 142.806L354.754 139.06H351.526V138.42H351.527ZM360.309 151.351C356.969 151.351 354.256 148.635 354.256 145.299C354.256 143.728 354.862 142.294 355.852 141.218L356.715 142.169C356.116 142.857 355.713 143.714 355.584 144.659H360.035L363.114 141.448C362.324 140.872 361.359 140.527 360.31 140.527C359.571 140.527 358.873 140.7 358.25 141.001L357.356 140.019C358.23 139.528 359.236 139.246 360.31 139.246C363.646 139.246 366.362 141.962 366.362 145.299C366.362 146.962 365.688 148.472 364.598 149.567L363.841 148.496C364.611 147.65 365.081 146.528 365.081 145.299C365.081 144.178 364.688 143.148 364.038 142.332L360.769 145.742C360.65 145.868 360.482 145.939 360.309 145.939H355.584C355.899 148.269 357.893 150.071 360.309 150.071C361.016 150.071 361.691 149.912 362.294 149.634L363.038 150.694C362.219 151.111 361.291 151.351 360.309 151.351ZM368.875 151.033H364.228C364.123 151.033 364.025 150.982 363.964 150.894L361.675 147.636L362.2 147.267L364.395 150.393H368.876V151.033H368.875Z" fill="#F0CD65"/>
<path d="M656.046 277.54L656.007 277.539L656.381 234.423C656.405 231.586 654.099 229.246 651.256 229.221L594.573 228.729C591.73 228.705 589.384 231.005 589.359 233.841L589.288 242.052L589.229 248.795L588.865 290.822L644.036 291.3L656.001 278.219L656.006 277.582L656.046 277.54Z" fill="#C1C1C1"/>
<path d="M655.206 240.788C655.209 240.405 654.899 240.089 654.516 240.085L587.661 239.505C587.278 239.502 586.962 239.813 586.959 240.196L586.539 288.595C586.535 288.976 586.846 289.291 587.229 289.295L630.059 289.666C630.442 289.669 630.82 289.673 630.9 289.673C630.98 289.674 631.359 289.677 631.741 289.681L642.016 289.77C642.399 289.773 642.923 289.546 643.181 289.264L654.428 276.936C654.686 276.654 654.899 276.109 654.903 275.727L655.206 240.788" fill="#F9F9F9"/>
<path d="M655.285 231.707C655.31 228.812 652.961 226.423 650.066 226.398L592.347 225.897C589.452 225.872 587.062 228.22 587.037 231.115L586.905 246.381L655.152 246.973L655.285 231.707Z" fill="#F9F9F9"/>
<path d="M631.972 289.684L643.434 275.976L648.042 276.016L643.698 288.594C643.698 288.594 643.282 289.782 641.716 289.768C640.15 289.755 631.972 289.684 631.972 289.684" fill="#D2DDE6"/>
<path d="M643.052 288.737C643.049 289.118 643.257 289.201 643.515 288.919L647.635 284.399C647.893 284.117 648.315 283.655 648.573 283.372L654.761 276.591C655.019 276.309 654.917 276.074 654.534 276.07L644.447 275.983C644.064 275.979 643.618 275.976 643.456 275.974C643.295 275.973 643.16 276.284 643.157 276.669L643.052 288.737" fill="white"/>
<path d="M615.528 262.593L616.416 273.444L613.91 273.649L618.79 273.25M639.266 260.651L640.154 271.502L637.78 271.697L642.396 271.319" stroke="#FF9E2C" stroke-linecap="round" stroke-linejoin="round"/>
<path d="M610.112 243.921L641.311 241.368L642.975 261.715L611.777 264.268L610.112 243.921Z" fill="url(#paint6_linear)"/>
<path d="M641.949 241.143L643.628 261.663L639.38 262.01L616.211 263.906L611.964 264.253L610.285 243.734L641.949 241.143Z" stroke="url(#paint7_linear)" stroke-linecap="round" stroke-linejoin="round"/>
<path d="M643.561 242.551L608.082 245.454C607.738 245.482 607.48 245.139 607.436 244.597L607.362 243.692C607.317 243.15 607.516 242.769 607.86 242.741L643.339 239.839C643.683 239.81 643.941 240.153 643.986 240.696L644.06 241.6C644.104 242.143 643.905 242.523 643.561 242.551Z" fill="url(#paint8_linear)"/>
<path d="M615.31 257.385L624.12 256.664M619.878 254.37L623.905 254.04M619.673 251.871L623.701 251.542M614.686 249.764L623.496 249.043M626.351 257.613L627.61 257.511M639.818 256.512L638.559 256.615M627.61 257.511L627.252 253.138L629.518 252.952L629.875 257.325M627.61 257.511L629.875 257.325M629.875 257.325L631.889 257.16M631.889 257.16L631.296 249.914L633.562 249.729L634.154 256.975M631.889 257.16L634.154 256.975M634.154 256.975L636.042 256.821M636.042 256.821L635.265 247.325L637.783 247.12L638.559 256.615M636.042 256.821L638.559 256.615" stroke="white" stroke-linecap="round" stroke-linejoin="round"/>
<path d="M601.504 243.261C599.44 243.43 597.961 245.243 598.136 247.385L598.168 247.776C598.343 249.921 600.097 251.47 602.162 251.301C604.23 251.131 605.709 249.318 605.533 247.173L605.501 246.783C605.326 244.641 603.572 243.092 601.504 243.261ZM604.313 247.273C604.433 248.734 603.443 249.968 602.062 250.081C600.681 250.194 599.506 249.137 599.387 247.676L599.355 247.285C599.236 245.827 600.223 244.593 601.603 244.48C602.984 244.367 604.162 245.424 604.282 246.882L604.313 247.273ZM613.992 251.333L600.537 252.434C596.508 252.763 594.592 254.515 594.847 257.638L595.517 265.822C595.621 267.099 596.745 268.056 598.026 267.951C598.423 267.919 598.784 267.776 599.099 267.571L599.605 273.752C599.725 275.217 601.016 276.313 602.481 276.193C603.31 276.125 604.01 275.675 604.448 275.038C604.512 275.104 604.567 275.172 604.637 275.231C605.178 275.693 605.868 275.913 606.578 275.854C606.578 275.854 606.578 275.854 606.581 275.854C608.046 275.734 609.139 274.444 609.019 272.978L607.672 256.514L614.372 255.966C615.653 255.861 616.607 254.737 616.502 253.46C616.397 252.182 615.273 251.228 613.992 251.333ZM614.272 254.746L606.352 255.394L607.799 273.079C607.863 273.873 607.271 274.571 606.477 274.635C606.093 274.667 605.72 274.548 605.427 274.299C605.133 274.05 604.953 273.701 604.921 273.314L604.195 264.436L602.975 264.536L603.701 273.417C603.766 274.211 603.174 274.909 602.38 274.973C601.586 275.038 600.889 274.446 600.824 273.652L599.533 257.871L598.314 257.97L598.933 265.542C598.983 266.148 598.529 266.682 597.926 266.731C597.319 266.781 596.785 266.327 596.736 265.721L596.066 257.538C595.933 255.915 596.333 254.006 600.636 253.654L614.092 252.553C614.699 252.503 615.232 252.953 615.282 253.56C615.332 254.166 614.878 254.696 614.272 254.746Z" fill="url(#paint9_radial)"/>
<path d="M615.282 253.562C615.332 254.169 614.878 254.7 614.272 254.749L606.351 255.397L607.798 273.082C607.863 273.876 607.271 274.574 606.477 274.639C606.093 274.67 605.72 274.551 605.426 274.303C605.133 274.054 604.952 273.705 604.921 273.318L604.194 264.44L602.975 264.539L603.701 273.42C603.766 274.214 603.173 274.912 602.38 274.977C601.586 275.042 600.889 274.449 600.824 273.656L599.533 257.874L598.314 257.974L598.933 265.545C598.983 266.152 598.529 266.685 597.926 266.734C597.319 266.784 596.785 266.331 596.736 265.725L596.066 257.541C595.933 255.919 596.333 254.009 600.636 253.657L614.092 252.556C614.699 252.506 615.232 252.956 615.282 253.562Z" fill="url(#paint10_linear)"/>
<path d="M577.271 54.5815L577.232 54.5908L567.166 13.3774C566.504 10.6662 563.739 8.99122 561.022 9.65496L506.841 22.8881C504.123 23.5519 502.441 26.313 503.104 29.0242L505.02 36.8721L506.595 43.3177L516.406 83.4893L569.142 70.6091L577.391 55.2406L577.242 54.6318L577.271 54.5815Z" fill="#C1C1C1"/>
<path d="M567.584 19.7279C567.495 19.3619 567.122 19.1353 566.757 19.2246L502.852 34.8326C502.487 34.922 502.26 35.2948 502.35 35.6609L513.649 81.923C513.738 82.2876 514.11 82.5133 514.476 82.424L555.416 72.4248C555.782 72.3354 556.143 72.2471 556.22 72.2284C556.296 72.2098 556.658 72.1214 557.024 72.0321L566.845 69.6332C567.211 69.5439 567.656 69.2009 567.834 68.8692L575.58 54.393C575.758 54.0614 575.83 53.4896 575.741 53.125L567.584 19.7279" fill="#F9F9F9"/>
<path d="M565.465 11.0514C564.789 8.28414 561.972 6.57287 559.205 7.24882L504.034 20.7239C501.266 21.3998 499.555 24.2171 500.231 26.9844L503.795 41.5767L569.029 25.6437L565.465 11.0514" fill="#F9F9F9"/>
<path d="M557.245 71.979L564.863 56.1344L569.267 55.0587L568.165 68.1052C568.165 68.1052 568.055 69.3386 566.558 69.7042C565.062 70.0698 557.245 71.979 557.245 71.979" fill="#D2DDE6"/>
<path d="M567.583 68.3976C567.672 68.7622 567.891 68.7911 568.069 68.4595L570.906 63.1527C571.084 62.8211 571.375 62.2782 571.552 61.9467L575.815 53.9833C575.993 53.6517 575.838 53.4519 575.472 53.5412L565.83 55.8962C565.464 55.9856 565.039 56.0897 564.884 56.1274C564.73 56.1651 564.676 56.4948 564.766 56.8624L567.583 68.3976" fill="white"/>
<path d="M546.437 41.1313H531.08C530.798 41.1313 530.569 41.3602 530.569 41.6425V43.7977H531.712V42.6549H546.567V47.9876L535.521 48.3686L531.978 46.7345L530.569 46.6194V52.4283C530.569 52.7105 530.798 52.9395 531.08 52.9395H546.437C546.719 52.9395 546.948 52.7105 546.948 52.4283V41.6425C546.948 41.3602 546.719 41.1313 546.437 41.1313Z" fill="#F0CD65"/>
<path d="M553.043 41.8932L560.28 39.2269V52.1777L553.043 49.1305V41.8932Z" fill="url(#paint11_linear)"/>
<path d="M522.57 42.6541L525.998 44.1777V46.8441L522.57 47.9868V42.6541Z" fill="#F0CD65"/>
<path d="M549.233 46.4665V49.1328H552.661V46.4665H549.233Z" fill="#F0CD65"/>
<path d="M536.664 57.5089C535.823 57.5089 535.141 58.1911 535.141 59.0325C535.141 59.8739 535.823 60.5562 536.664 60.5562C537.506 60.5562 538.188 59.8739 538.188 59.0325C538.188 58.1911 537.506 57.5089 536.664 57.5089Z" fill="#F0CD65"/>
<path d="M548.031 55.603H529.487C528.613 55.603 527.903 54.8926 527.903 54.0192V47.0326C527.903 46.7168 528.159 46.4612 528.474 46.4612C528.79 46.4612 529.046 46.7168 529.046 47.0326V54.0192C529.046 54.2622 529.244 54.4603 529.487 54.4603H548.031C548.274 54.4603 548.472 54.2622 548.472 54.0192V40.046C548.472 39.803 548.274 39.6049 548.031 39.6049H529.487C529.244 39.6049 529.046 39.803 529.046 40.046V42.0808C529.046 42.3966 528.79 42.6522 528.474 42.6522C528.159 42.6522 527.903 42.3966 527.903 42.0808V40.046C527.903 39.1726 528.613 38.4622 529.487 38.4622H548.031C548.904 38.4622 549.615 39.1726 549.615 40.046V54.0192C549.615 54.8926 548.904 55.603 548.031 55.603Z" fill="url(#paint12_linear)"/>
<path d="M537.234 32.7539H534.568C534.253 32.7539 533.997 32.4983 533.997 32.1825C533.997 31.8668 534.253 31.6112 534.568 31.6112H537.234C537.55 31.6112 537.806 31.8668 537.806 32.1825C537.806 32.4983 537.55 32.7539 537.234 32.7539Z" fill="url(#paint13_linear)"/>
<path d="M530.759 39.2275C530.443 39.2275 530.188 38.9719 530.188 38.6562V36.3707C530.188 36.055 530.443 35.7994 530.759 35.7994C531.074 35.7994 531.33 36.055 531.33 36.3707V38.6562C531.33 38.9719 531.074 39.2275 530.759 39.2275Z" fill="url(#paint14_linear)"/>
<path d="M541.806 39.2275C541.491 39.2275 541.235 38.9719 541.235 38.6562V36.7516C541.235 36.4359 541.491 36.1803 541.806 36.1803C542.122 36.1803 542.378 36.4359 542.378 36.7516V38.6562C542.378 38.9719 542.122 39.2275 541.806 39.2275Z" fill="url(#paint15_linear)"/>
<path d="M552.853 49.8955H549.044C548.728 49.8955 548.472 49.6399 548.472 49.3241C548.472 49.0084 548.728 48.7528 549.044 48.7528H552.281V42.6583H549.044C548.728 42.6583 548.472 42.4027 548.472 42.0869C548.472 41.7711 548.728 41.5155 549.044 41.5155H552.853C553.168 41.5155 553.424 41.7711 553.424 42.0869V49.3241C553.424 49.6399 553.168 49.8955 552.853 49.8955Z" fill="url(#paint16_linear)"/>
<path d="M560.47 52.9395C560.398 52.9395 560.326 52.9261 560.258 52.8987L552.64 49.8514C552.347 49.7341 552.204 49.4016 552.321 49.1087C552.438 48.8157 552.772 48.6737 553.064 48.7902L559.899 51.5244V39.88L553.064 42.6142C552.772 42.7315 552.438 42.589 552.321 42.2957C552.204 42.0028 552.347 41.6703 552.64 41.553L560.258 38.5057C560.434 38.4348 560.633 38.4569 560.79 38.5632C560.947 38.6695 561.041 38.8466 561.041 39.0363V52.3681C561.041 52.5578 560.947 52.7349 560.79 52.8412C560.694 52.9063 560.583 52.9395 560.47 52.9395" fill="url(#paint17_linear)"/>
<path d="M543.9 31.6083C543.059 31.6083 542.377 30.926 542.377 30.0846C542.377 29.2432 543.059 28.561 543.9 28.561C544.742 28.561 545.424 29.2432 545.424 30.0846C545.424 30.926 544.742 31.6083 543.9 31.6083ZM543.9 23.6092C540.324 23.6092 537.425 26.5083 537.425 30.0846C537.425 33.661 540.324 36.5601 543.9 36.5601C547.477 36.5601 550.376 33.661 550.376 30.0846C550.376 26.5083 547.477 23.6092 543.9 23.6092Z" fill="url(#paint18_linear)"/>
<path d="M527.902 31.6083C527.061 31.6083 526.379 30.926 526.379 30.0846C526.379 29.2432 527.061 28.561 527.902 28.561C528.744 28.561 529.426 29.2432 529.426 30.0846C529.426 30.926 528.744 31.6083 527.902 31.6083ZM527.902 23.6092C524.326 23.6092 521.427 26.5083 521.427 30.0846C521.427 33.661 524.326 36.5601 527.902 36.5601C531.479 36.5601 534.378 33.661 534.378 30.0846C534.378 26.5083 531.479 23.6092 527.902 23.6092Z" fill="url(#paint19_linear)"/>
<path d="M543.901 23.991C540.541 23.991 537.807 26.7251 537.807 30.0855C537.807 33.4459 540.541 36.18 543.901 36.18C547.262 36.18 549.996 33.4459 549.996 30.0855C549.996 26.7251 547.262 23.991 543.901 23.991ZM543.901 37.3228C539.911 37.3228 536.664 34.0763 536.664 30.0855C536.664 26.0947 539.911 22.8482 543.901 22.8482C547.892 22.8482 551.139 26.0947 551.139 30.0855C551.139 34.0763 547.892 37.3228 543.901 37.3228Z" fill="url(#paint20_linear)"/>
<path d="M535.459 58.0264C535.265 58.0264 535.075 57.9269 534.968 57.7479C534.582 57.1019 534.378 56.3599 534.378 55.603C534.378 55.2873 534.634 55.0317 534.949 55.0317C535.265 55.0317 535.521 55.2873 535.521 55.603C535.521 56.1538 535.669 56.6928 535.949 57.1621C536.111 57.4329 536.022 57.7837 535.751 57.9452C535.66 58.0001 535.559 58.0264 535.459 58.0264" fill="url(#paint21_linear)"/>
<path d="M538.569 59.7939C538.254 59.7939 537.998 59.5384 537.998 59.2226C537.998 58.9068 538.254 58.6512 538.569 58.6512C540.249 58.6512 541.616 57.2841 541.616 55.604C541.616 55.2882 541.872 55.0326 542.188 55.0326C542.503 55.0326 542.759 55.2882 542.759 55.604C542.759 57.9142 540.879 59.7939 538.569 59.7939Z" fill="url(#paint22_linear)"/>
<path d="M543.901 28.941C543.271 28.941 542.758 29.4537 542.758 30.0837C542.758 30.7137 543.271 31.2264 543.901 31.2264C544.531 31.2264 545.044 30.7137 545.044 30.0837C545.044 29.4537 544.531 28.941 543.901 28.941ZM543.901 32.3691C542.641 32.3691 541.616 31.3441 541.616 30.0837C541.616 28.8233 542.641 27.7982 543.901 27.7982C545.162 27.7982 546.187 28.8233 546.187 30.0837C546.187 31.3441 545.162 32.3691 543.901 32.3691Z" fill="url(#paint23_linear)"/>
<path d="M527.903 28.941C527.273 28.941 526.76 29.4537 526.76 30.0837C526.76 30.7137 527.273 31.2264 527.903 31.2264C528.533 31.2264 529.046 30.7137 529.046 30.0837C529.046 29.4537 528.533 28.941 527.903 28.941ZM527.903 32.3691C526.643 32.3691 525.618 31.3441 525.618 30.0837C525.618 28.8233 526.643 27.7982 527.903 27.7982C529.164 27.7982 530.189 28.8233 530.189 30.0837C530.189 31.3441 529.164 32.3691 527.903 32.3691Z" fill="url(#paint24_linear)"/>
<path d="M536.663 57.8931C536.033 57.8931 535.521 58.4058 535.521 59.0358C535.521 59.6659 536.033 60.1786 536.663 60.1786C537.293 60.1786 537.806 59.6659 537.806 59.0358C537.806 58.4058 537.293 57.8931 536.663 57.8931ZM536.663 61.3213C535.403 61.3213 534.378 60.2963 534.378 59.0358C534.378 57.7754 535.403 56.7504 536.663 56.7504C537.924 56.7504 538.949 57.7754 538.949 59.0358C538.949 60.2963 537.924 61.3213 536.663 61.3213Z" fill="url(#paint25_linear)"/>
<path d="M527.903 23.991C524.542 23.991 521.808 26.7251 521.808 30.0855C521.808 33.4459 524.542 36.18 527.903 36.18C531.263 36.18 533.997 33.4459 533.997 30.0855C533.997 26.7251 531.263 23.991 527.903 23.991ZM527.903 37.3228C523.912 37.3228 520.666 34.0763 520.666 30.0855C520.666 26.0947 523.912 22.8482 527.903 22.8482C531.894 22.8482 535.14 26.0947 535.14 30.0855C535.14 34.0763 531.894 37.3228 527.903 37.3228Z" fill="url(#paint26_linear)"/>
<path d="M546.377 48.749H535.331C535.251 48.749 535.172 48.7323 535.099 48.6999L531.782 47.2254H526.189C525.874 47.2254 525.618 46.9698 525.618 46.654C525.618 46.3383 525.874 46.0827 526.189 46.0827H531.903C531.983 46.0827 532.062 46.0994 532.135 46.1318L535.452 47.6063H545.806V43.4163H532.474V43.9877C532.474 44.3034 532.218 44.559 531.903 44.559H526.189C525.874 44.559 525.618 44.3034 525.618 43.9877C525.618 43.6719 525.874 43.4163 526.189 43.4163H531.331V42.8449C531.331 42.5292 531.587 42.2736 531.903 42.2736H546.377C546.693 42.2736 546.949 42.5292 546.949 42.8449V48.1777C546.949 48.4934 546.693 48.749 546.377 48.749Z" fill="url(#paint27_linear)"/>
<path d="M522.95 43.3077V47.334L525.617 46.267V44.3747L522.95 43.3077ZM522.379 48.749C522.266 48.749 522.155 48.7159 522.059 48.6507C521.902 48.5445 521.808 48.3674 521.808 48.1777V42.464C521.808 42.2743 521.902 42.0972 522.059 41.991C522.215 41.8847 522.415 41.8626 522.591 41.9334L526.4 43.4571C526.617 43.5439 526.759 43.7542 526.759 43.9877V46.654C526.759 46.8875 526.617 47.0978 526.4 47.1846L522.591 48.7083C522.523 48.7357 522.451 48.749 522.379 48.749Z" fill="url(#paint28_linear)"/>
<path d="M529.109 62.8521C528.88 62.8521 528.665 62.7145 528.577 62.4894C528.461 62.1957 528.606 61.864 528.899 61.7486L534.74 59.4543C535.035 59.3389 535.366 59.4833 535.481 59.7774C535.596 60.071 535.451 60.4024 535.158 60.5178L529.318 62.812C529.249 62.8391 529.178 62.8521 529.109 62.8521" fill="url(#paint29_linear)"/>
<path d="M543.329 44.5584C542.803 44.5584 542.377 44.9846 542.377 45.5106C542.377 46.0367 542.803 46.4629 543.329 46.4629C543.855 46.4629 544.281 46.0367 544.281 45.5106C544.281 44.9846 543.855 44.5584 543.329 44.5584Z" fill="url(#paint30_linear)"/>
<path d="M539.901 44.5584C539.375 44.5584 538.949 44.9846 538.949 45.5106C538.949 46.0367 539.375 46.4629 539.901 46.4629C540.427 46.4629 540.853 46.0367 540.853 45.5106C540.853 44.9846 540.427 44.5584 539.901 44.5584Z" fill="url(#paint31_linear)"/>
<path d="M536.473 44.5584C535.947 44.5584 535.521 44.9846 535.521 45.5106C535.521 46.0367 535.947 46.4629 536.473 46.4629C536.999 46.4629 537.426 46.0367 537.426 45.5106C537.426 44.9846 536.999 44.5584 536.473 44.5584Z" fill="url(#paint32_linear)"/>
<path d="M552.472 47.2246H549.424C549.109 47.2246 548.853 46.969 548.853 46.6532C548.853 46.3375 549.109 46.0819 549.424 46.0819H552.472C552.787 46.0819 553.043 46.3375 553.043 46.6532C553.043 46.969 552.787 47.2246 552.472 47.2246Z" fill="url(#paint33_linear)"/>
<path d="M531.141 36.1763C530.994 36.1763 530.848 36.1207 530.736 36.009L526.927 32.2C526.705 31.9768 526.705 31.6149 526.927 31.3917C527.151 31.1689 527.512 31.1689 527.736 31.3917L531.545 35.2008C531.768 35.424 531.768 35.7858 531.545 36.009C531.433 36.1207 531.287 36.1763 531.141 36.1763" fill="url(#paint34_linear)"/>
<path d="M532.665 34.6553C532.481 34.6553 532.299 34.5661 532.189 34.4008L529.142 29.8299C528.967 29.5675 529.038 29.2125 529.3 29.0376C529.562 28.8624 529.918 28.9333 530.093 29.1961L533.14 33.767C533.315 34.0294 533.244 34.3844 532.982 34.5593C532.884 34.624 532.774 34.6553 532.665 34.6553" fill="url(#paint35_linear)"/>
<path d="M529.434 62.1492C529.188 61.4921 528.456 61.1588 527.799 61.4045L524.114 62.7842C523.457 63.0302 523.124 63.7624 523.37 64.4198C523.616 65.0769 524.348 65.4102 525.006 65.1641L528.69 63.7844C529.347 63.5384 529.68 62.8063 529.434 62.1492" fill="url(#paint36_linear)"/>
<path d="M541.044 28.5601C540.898 28.5601 540.751 28.5044 540.64 28.3928L539.878 27.631C539.655 27.4078 539.655 27.046 539.878 26.8227C540.101 26.5999 540.463 26.5999 540.686 26.8227L541.448 27.5846C541.671 27.8078 541.671 28.1696 541.448 28.3928C541.337 28.5044 541.19 28.5601 541.044 28.5601" fill="url(#paint37_linear)"/>
<path d="M546.757 28.5601C546.611 28.5601 546.465 28.5044 546.353 28.3928C546.13 28.1696 546.13 27.8078 546.353 27.5846L547.115 26.8227C547.338 26.5999 547.7 26.5999 547.923 26.8227C548.146 27.046 548.146 27.4078 547.923 27.631L547.161 28.3928C547.05 28.5044 546.904 28.5601 546.757 28.5601" fill="url(#paint38_linear)"/>
<path d="M540.282 33.8936C540.136 33.8936 539.99 33.8379 539.878 33.7263C539.655 33.5031 539.655 33.1413 539.878 32.9181L540.64 32.1562C540.863 31.9334 541.225 31.9334 541.448 32.1562C541.671 32.3795 541.671 32.7413 541.448 32.9645L540.686 33.7263C540.575 33.8379 540.428 33.8936 540.282 33.8936" fill="url(#paint39_linear)"/>
<path d="M525.047 28.5601C524.901 28.5601 524.754 28.5044 524.643 28.3928L523.881 27.631C523.658 27.4078 523.658 27.046 523.881 26.8227C524.104 26.5999 524.466 26.5999 524.689 26.8227L525.451 27.5846C525.674 27.8078 525.674 28.1696 525.451 28.3928C525.339 28.5044 525.193 28.5601 525.047 28.5601" fill="url(#paint40_linear)"/>
<path d="M530.759 28.5601C530.613 28.5601 530.466 28.5044 530.355 28.3928C530.132 28.1696 530.132 27.8078 530.355 27.5846L531.116 26.8227C531.34 26.5999 531.702 26.5999 531.925 26.8227C532.148 27.046 532.148 27.4078 531.925 27.631L531.163 28.3928C531.051 28.5044 530.905 28.5601 530.759 28.5601" fill="url(#paint41_linear)"/>
<path d="M524.285 33.8936C524.139 33.8936 523.993 33.8379 523.881 33.7263C523.658 33.5031 523.658 33.1413 523.881 32.9181L524.643 32.1562C524.866 31.9334 525.228 31.9334 525.451 32.1562C525.674 32.3795 525.674 32.7413 525.451 32.9645L524.689 33.7263C524.578 33.8379 524.431 33.8936 524.285 33.8936" fill="url(#paint42_linear)"/>
<path d="M547.519 33.8936C547.373 33.8936 547.227 33.8379 547.115 33.7263L546.353 32.9645C546.13 32.7413 546.13 32.3795 546.353 32.1562C546.576 31.9334 546.938 31.9334 547.161 32.1562L547.923 32.9181C548.146 33.1413 548.146 33.5031 547.923 33.7263C547.812 33.8379 547.665 33.8936 547.519 33.8936" fill="url(#paint43_linear)"/>
<path d="M650.056 171.449L650.015 171.442L657.116 126.73C657.584 123.789 655.554 120.999 652.606 120.531L593.825 111.195C590.877 110.726 588.082 112.749 587.615 115.691L586.263 124.205L585.152 131.198L578.229 174.78L635.442 183.867L649.903 172.147L650.008 171.487L650.056 171.449Z" fill="#C1C1C1"/>
<path d="M654.906 133.155C654.969 132.758 654.696 132.381 654.299 132.318L584.969 121.306C584.573 121.243 584.196 121.517 584.133 121.914L576.161 172.103C576.098 172.499 576.372 172.875 576.769 172.938L621.184 179.993C621.581 180.056 621.973 180.118 622.056 180.131C622.139 180.144 622.531 180.207 622.928 180.27L633.584 181.962C633.981 182.025 634.56 181.871 634.872 181.618L648.469 170.569C648.781 170.316 649.088 169.783 649.151 169.387L654.906 133.155" fill="#F9F9F9"/>
<path d="M656.401 123.74C656.877 120.738 654.811 117.891 651.809 117.414L591.954 107.907C588.951 107.43 586.105 109.497 585.628 112.499L583.113 128.33L653.886 139.571L656.401 123.74" fill="#F9F9F9"/>
<path d="M623.17 180.308L637.206 167.859L641.984 168.618L635.516 181.003C635.516 181.003 634.898 182.171 633.274 181.913C631.651 181.655 623.17 180.308 623.17 180.308" fill="#D2DDE6"/>
<path d="M634.82 181.049C634.757 181.445 634.96 181.563 635.272 181.31L640.254 177.259C640.566 177.006 641.076 176.592 641.388 176.339L648.869 170.261C649.181 170.008 649.111 169.748 648.714 169.685L638.254 168.023C637.857 167.96 637.395 167.887 637.227 167.86C637.059 167.833 636.871 168.136 636.807 168.535L634.82 181.049" fill="white"/>
<path d="M617.966 148.757L613.229 150.647C612.508 150.934 611.749 150.327 611.871 149.561L613.514 139.211C613.636 138.445 614.546 138.103 615.142 138.6L619.061 141.865L619.061 141.865L623.011 145.155C623.593 145.64 623.445 146.572 622.741 146.853L617.966 148.757ZM600.937 131.541L597.622 152.414L633.329 158.086L636.645 137.212L600.937 131.541Z" fill="url(#paint44_linear)" stroke="url(#paint45_linear)" stroke-linecap="round" stroke-linejoin="round"/>
<path d="M478.271 118.178L478.229 118.175L481.946 73.5204C482.19 70.5828 479.975 67.9786 477.022 67.7329L418.156 62.8336C415.203 62.5878 412.587 64.7899 412.343 67.7275L411.635 76.2307L411.054 83.2143L407.431 126.74L464.727 131.508L478.171 118.879L478.226 118.219L478.271 118.178Z" fill="#C1C1C1"/>
<path d="M480.234 80.0215C480.267 79.6248 479.969 79.273 479.571 79.2399L410.141 73.4613C409.743 73.4283 409.391 73.7259 409.358 74.1226L405.186 124.247C405.153 124.642 405.452 124.993 405.849 125.026L450.329 128.728C450.727 128.761 451.12 128.794 451.203 128.801C451.286 128.808 451.679 128.84 452.076 128.873L462.747 129.761C463.145 129.795 463.707 129.6 463.997 129.328L476.635 117.423C476.925 117.15 477.19 116.602 477.223 116.207L480.234 80.0215" fill="#F9F9F9"/>
<path d="M481.017 70.6205C481.266 67.6222 479.01 64.9641 476.003 64.7139L416.061 59.725C413.054 59.4748 410.39 61.7234 410.141 64.7216L408.825 80.5322L479.701 86.4311L481.017 70.6205" fill="#F9F9F9"/>
<path d="M452.316 128.894L465.285 115.575L470.07 115.974L464.586 128.673C464.586 128.673 464.062 129.871 462.435 129.736C460.809 129.6 452.316 128.894 452.316 128.894" fill="#D2DDE6"/>
<path d="M463.903 128.773C463.87 129.168 464.08 129.27 464.37 128.997L469.001 124.632C469.291 124.36 469.765 123.914 470.055 123.641L477.008 117.093C477.298 116.82 477.21 116.568 476.813 116.535L466.337 115.663C465.939 115.63 465.476 115.592 465.309 115.578C465.141 115.564 464.976 115.876 464.943 116.274L463.903 128.773" fill="white"/>
<path d="M461.048 97.2541C460.218 107.223 451.442 114.63 441.446 113.798C431.449 112.966 424.018 104.21 424.847 94.2412C425.677 84.2723 434.454 76.8652 444.45 77.6972C454.446 78.5292 461.878 87.2852 461.048 97.2541Z" fill="url(#paint46_linear)"/>
<path fill-rule="evenodd" clip-rule="evenodd" d="M439.386 112.697C439.994 113.725 440.774 114.444 441.736 114.524C442.698 114.604 443.586 114.024 444.355 113.11C445.132 112.187 445.856 110.847 446.499 109.209C447.788 105.928 448.79 101.358 449.213 96.2717C449.637 91.1856 449.404 86.5124 448.675 83.0636C448.311 81.342 447.819 79.9002 447.205 78.8613C446.598 77.8331 445.818 77.1146 444.856 77.0345C443.894 76.9544 443.006 77.5341 442.237 78.4478C441.46 79.3709 440.736 80.7115 440.093 82.3493C438.804 85.6302 437.802 90.2006 437.378 95.2867C436.955 100.373 437.188 105.046 437.917 108.495C438.28 110.216 438.773 111.658 439.386 112.697ZM438.759 108.306C438.053 104.964 437.819 100.382 438.237 95.3582C438.656 90.3342 439.644 85.8537 440.893 82.6743C441.518 81.082 442.2 79.8401 442.89 79.0198C443.588 78.1901 444.23 77.8654 444.783 77.9114C445.336 77.9575 445.915 78.3837 446.466 79.3174C447.012 80.2406 447.479 81.578 447.832 83.2519C448.538 86.594 448.772 91.1762 448.354 96.2002C447.936 101.224 446.948 105.705 445.699 108.884C445.073 110.476 444.392 111.718 443.701 112.539C443.003 113.368 442.362 113.693 441.809 113.647C441.255 113.601 440.677 113.175 440.125 112.241C439.58 111.318 439.113 109.98 438.759 108.306Z" fill="white"/>
<path fill-rule="evenodd" clip-rule="evenodd" d="M432.936 108.197C434.896 111.776 437.859 114.201 441.387 114.495C444.916 114.788 448.239 112.886 450.763 109.681C453.289 106.473 455.051 101.923 455.478 96.793C455.905 91.6626 454.92 86.8838 452.959 83.3026C450.999 79.7243 448.036 77.299 444.508 77.0054C440.979 76.7117 437.656 78.6138 435.132 81.8189C432.606 85.0266 430.844 89.5767 430.417 94.7071C429.99 99.8376 430.975 104.616 432.936 108.197ZM433.691 107.767C431.824 104.358 430.863 99.7585 431.277 94.7788C431.692 89.7991 433.401 85.4215 435.805 82.3681C438.212 79.3122 441.28 77.6197 444.435 77.8823C447.589 78.1448 450.335 80.3212 452.204 83.7329C454.071 87.1418 455.032 91.7416 454.617 96.7213C454.203 101.701 452.494 106.079 450.09 109.132C447.683 112.188 444.615 113.88 441.46 113.618C438.306 113.355 435.56 111.179 433.691 107.767Z" fill="white"/>
<path fill-rule="evenodd" clip-rule="evenodd" d="M430.052 99.2378C433.275 100.578 437.77 101.609 442.776 102.026C447.781 102.442 452.384 102.169 455.784 101.379C457.482 100.985 458.905 100.457 459.931 99.8031C460.947 99.156 461.659 98.3287 461.744 97.3129C461.828 96.297 461.263 95.3633 460.368 94.5571C459.463 93.7426 458.148 92.9863 456.539 92.3171C453.316 90.9764 448.821 89.9459 443.816 89.5292C438.81 89.1126 434.207 89.386 430.807 90.1754C429.109 90.5695 427.687 91.0979 426.66 91.7517C425.644 92.3988 424.932 93.2262 424.847 94.242C424.763 95.2579 425.328 96.1915 426.223 96.9977C427.128 97.8122 428.443 98.5685 430.052 99.2378ZM426.79 96.3049C425.978 95.5729 425.662 94.8982 425.71 94.3139C425.759 93.7295 426.182 93.1163 427.105 92.5287C428.017 91.9477 429.337 91.447 430.987 91.0638C434.282 90.2988 438.795 90.0248 443.74 90.4363C448.685 90.8478 453.091 91.8642 456.214 93.1634C457.778 93.8141 458.997 94.5261 459.801 95.2499C460.613 95.9819 460.929 96.6566 460.881 97.241C460.832 97.8253 460.409 98.4385 459.486 99.0261C458.574 99.6071 457.254 100.108 455.604 100.491C452.309 101.256 447.796 101.53 442.851 101.119C437.906 100.707 433.5 99.6907 430.377 98.3914C428.813 97.7407 427.594 97.0287 426.79 96.3049Z" fill="white"/>
<path fill-rule="evenodd" clip-rule="evenodd" d="M429.575 103.587C432.73 106.102 437.206 107.854 442.256 108.275C447.305 108.695 452.01 107.707 455.537 105.748C459.061 103.79 461.451 100.832 461.744 97.3138C462.037 93.7952 460.168 90.4834 457.016 87.9698C453.862 85.4542 449.385 83.7021 444.336 83.2819C439.286 82.8616 434.582 83.8496 431.055 85.8091C427.53 87.767 425.14 90.7244 424.847 94.2429C424.554 97.7614 426.423 101.073 429.575 103.587ZM430.116 102.915C427.111 100.518 425.448 97.4608 425.71 94.3148C425.972 91.1687 428.117 88.4282 431.477 86.5614C434.835 84.6962 439.363 83.7326 444.264 84.1405C449.165 84.5484 453.472 86.2473 456.475 88.6419C459.48 91.0385 461.143 94.0959 460.881 97.2419C460.619 100.388 458.474 103.128 455.114 104.995C451.757 106.86 447.228 107.824 442.327 107.416C437.426 107.008 433.119 105.309 430.116 102.915Z" fill="white"/>
<path d="M220.993 365.78C218.646 364.1 207.418 332.921 208.068 329.213C208.181 328.574 208.372 327.506 208.6 326.085C209.612 319.779 211.347 306.512 210.117 292.795C210.021 292.152 209.99 291.445 209.898 290.632C209.854 290.24 209.807 289.847 209.757 289.455C209.328 286.051 209.084 283.088 208.975 280.529C208.813 276.714 208.965 274.317 210.036 270.822C210.332 269.859 210.696 268.814 211.143 267.632C211.954 265.488 212.441 264.271 213.727 262.336C217.349 256.884 222.313 248.815 227.726 238.848C237.989 236.034 254.636 231.306 267.455 227.27C276.458 224.436 279.166 221.242 285.266 220.694C286.149 220.615 286.53 220.45 286.858 221.343C288.887 226.871 282.36 255.829 252.805 261.511C248.241 262.388 241.155 264.78 237.513 265.265C236.392 265.941 234.956 266.718 233.308 267.497C240.394 276.38 271.91 282.058 276.602 284.111C282.971 286.897 264.104 308.83 234.188 303.044C228.573 301.958 224.153 300.82 220.699 299.685C227.686 306.993 242.616 321.932 246.435 323.231C251.21 324.856 232.367 352.725 208.6 326.085C208.372 327.506 208.181 328.574 208.068 329.213C207.418 332.921 218.646 364.1 220.993 365.78C223.34 367.46 233.199 359.566 244.781 360.192C256.363 360.818 248.27 341.802 276.056 328.303C298.285 317.503 310.917 326.714 314.454 332.67C313.844 335.185 309.845 341.477 298.731 346.52C298.45 346.648 298.175 346.779 297.904 346.915C298.975 341.075 303.785 330.05 314.454 332.67C310.917 326.714 298.285 317.503 276.056 328.303C248.27 341.802 256.363 360.818 244.781 360.192C233.199 359.566 223.34 367.46 220.993 365.78Z" fill="#FEFEFE"/>
<path d="M122.844 301.737C122.023 303.564 120.1 305.906 119.329 306.856C116.31 310.579 114.374 316.06 113.414 319.642C112.455 323.224 113.154 328.393 113.623 330.53C114.417 331.909 115.458 338.74 113.274 355.036C110.543 375.406 102.647 415.777 100.549 422.846C99.1633 427.515 72.1408 454.8 56.004 471.046L157.464 471.699C158.748 467.152 175.437 474.173 187.096 457.32C190.465 452.045 203.743 437.628 229.902 422.158C262.599 402.82 246.576 400.67 265.068 385.176C283.187 369.995 284.779 353.505 297.904 346.915M124.721 340.462C123.604 334.531 119.983 322.653 121.877 310.098C123.772 297.543 122.608 295.87 122.337 293.044C121.744 286.855 127.477 274.175 144.959 272.141M135.035 354.948C133.988 351.978 133.352 347.55 134.996 338.048C136.639 328.546 136.128 329.102 135.479 321.274C135.302 319.143 135.5 314.303 137.038 307.627C137.444 305.864 138.081 302.206 137.731 298.305C137.31 293.62 147.277 266.881 149.592 260.857C151.253 253.139 154.243 243.843 159.766 241.795C164.183 240.157 179.838 239.922 187.114 240.009M187.114 240.009C182.089 247.989 173.153 261.694 170.515 266.138C166.99 272.077 163.126 292.727 163.273 296.533C163.39 299.578 162.203 304.37 161.153 308.331C160.064 312.439 158.977 314.694 157.414 320.564M187.114 240.009C202.079 217.049 236.461 166.71 238.835 160.492C241.802 152.72 264.732 163.025 248.34 200.957C242.018 215.589 234.217 228.454 227.726 238.848M314.454 332.67C310.917 326.714 298.285 317.503 276.056 328.303C248.27 341.802 256.363 360.818 244.781 360.192C233.199 359.566 223.34 367.46 220.993 365.78C218.646 364.1 207.418 332.921 208.068 329.213C208.181 328.574 208.372 327.506 208.6 326.085M314.454 332.67C313.844 335.185 309.845 341.477 298.731 346.52C298.45 346.648 298.175 346.779 297.904 346.915M314.454 332.67C303.785 330.05 298.975 341.075 297.904 346.915M227.726 238.848C222.313 248.815 217.349 256.884 213.727 262.336C212.441 264.271 211.954 265.488 211.143 267.632C210.696 268.814 210.332 269.859 210.036 270.822M227.726 238.848C237.989 236.034 254.636 231.306 267.455 227.27M233.308 267.497C240.394 276.38 271.91 282.058 276.602 284.111C282.971 286.897 264.104 308.83 234.188 303.044C228.573 301.958 224.153 300.82 220.699 299.685M209.898 290.632C209.854 290.24 209.807 289.847 209.757 289.455C209.328 286.051 209.084 283.088 208.975 280.529C208.813 276.714 208.965 274.317 210.036 270.822M209.898 290.632C210.336 294.513 209.393 295.971 220.699 299.685M209.898 290.632C211.531 305.1 209.665 319.448 208.6 326.085M220.699 299.685C227.686 306.993 242.616 321.932 246.435 323.231C251.21 324.856 232.367 352.725 208.6 326.085M267.455 227.27C276.458 224.436 279.166 221.242 285.266 220.694C286.149 220.615 286.53 220.45 286.858 221.343M267.455 227.27C272.967 228.547 281.023 229.418 286.858 221.343M286.858 221.343C288.887 226.871 282.36 255.829 252.805 261.511C248.241 262.388 241.155 264.78 237.513 265.265C231.959 268.617 218.689 274.423 210.036 270.822" stroke="url(#paint47_linear)" stroke-linecap="round" stroke-linejoin="round"/>
<path d="M247.857 324.079C244.602 323.017 237.216 319.244 233.705 312.648C242.645 317.674 246.864 322.362 247.857 324.079Z" fill="url(#paint48_linear)"/>
<path d="M278.015 284.607C274.421 285.594 265.182 285.848 256.979 278.965C268.525 279.329 275.814 282.878 278.015 284.607Z" fill="url(#paint49_linear)"/>
<path d="M298.254 346.556C299.02 341.299 303.253 331.141 314.059 332.564C313.866 335.148 310.434 341.564 298.254 346.556Z" fill="url(#paint50_linear)"/>
<path d="M268.691 226.942C272.842 224.744 282.091 220.349 285.879 220.347C290.614 220.344 278.429 231.119 268.691 226.942Z" fill="url(#paint51_linear)"/>
<path d="M243.563 157.713C243.372 161.348 240.308 170.008 229.587 175.571C234.182 164.951 239.807 154.847 243.563 157.713Z" fill="url(#paint52_linear)"/>
<defs>
<linearGradient id="paint0_linear" x1="285.498" y1="313.259" x2="631.168" y2="161.647" gradientUnits="userSpaceOnUse">
<stop stop-color="#FEFEFE"/>
<stop offset="0.321912" stop-color="#FFD9E2"/>
<stop offset="0.657883" stop-color="#FFD9E2"/>
<stop offset="1" stop-color="white"/>
</linearGradient>
<linearGradient id="paint1_linear" x1="279.693" y1="259.551" x2="709.23" y2="152.777" gradientUnits="userSpaceOnUse">
<stop stop-color="#FEFEFE"/>
<stop offset="0.321912" stop-color="#FFD9E2"/>
<stop offset="0.657883" stop-color="#FFD9E2"/>
<stop offset="1" stop-color="white"/>
</linearGradient>
<linearGradient id="paint2_linear" x1="261.691" y1="208.546" x2="627.173" y2="93.7036" gradientUnits="userSpaceOnUse">
<stop stop-color="#FEFEFE"/>
<stop offset="0.297193" stop-color="#FFD9E2"/>
<stop offset="0.579395" stop-color="#FFD9E2"/>
<stop offset="0.995365" stop-color="white"/>
</linearGradient>
<linearGradient id="paint3_linear" x1="438.1" y1="185.161" x2="523.071" y2="268.799" gradientUnits="userSpaceOnUse">
<stop stop-color="#E64212"/>
<stop offset="1" stop-color="#8E1A66"/>
</linearGradient>
<linearGradient id="paint4_linear" x1="333.624" y1="268.563" x2="349.073" y2="313.237" gradientUnits="userSpaceOnUse">
<stop stop-color="#E74314"/>
<stop offset="1" stop-color="#8F1A66"/>
</linearGradient>
<linearGradient id="paint5_linear" x1="327.328" y1="123.788" x2="337.451" y2="173.282" gradientUnits="userSpaceOnUse">
<stop stop-color="#E74314"/>
<stop offset="1" stop-color="#8F1A66"/>
</linearGradient>
<linearGradient id="paint6_linear" x1="610.673" y1="253.955" x2="640.789" y2="251.491" gradientUnits="userSpaceOnUse">
<stop stop-color="#F5623A"/>
<stop offset="1" stop-color="#F4B12E"/>
</linearGradient>
<linearGradient id="paint7_linear" x1="612.504" y1="253.693" x2="641.135" y2="251.351" gradientUnits="userSpaceOnUse">
<stop stop-color="#EF1C54"/>
<stop offset="1" stop-color="#B80465"/>
</linearGradient>
<linearGradient id="paint8_linear" x1="607.259" y1="244.777" x2="608.269" y2="249.561" gradientUnits="userSpaceOnUse">
<stop stop-color="#E74314"/>
<stop offset="1" stop-color="#8F1A66"/>
</linearGradient>
<radialGradient id="paint9_radial" cx="0" cy="0" r="1" gradientUnits="userSpaceOnUse" gradientTransform="translate(589.478 237.044) rotate(42.9899) scale(71.5715 149.303)">
<stop stop-color="#E54212"/>
<stop offset="0.375124" stop-color="#CB333C"/>
<stop offset="0.694302" stop-color="#B22453"/>
<stop offset="0.976183" stop-color="#9F165F"/>
</radialGradient>
<linearGradient id="paint10_linear" x1="587.677" y1="254.613" x2="609.098" y2="268.046" gradientUnits="userSpaceOnUse">
<stop stop-color="white"/>
</linearGradient>
<linearGradient id="paint11_linear" x1="552.983" y1="45.8043" x2="559.969" y2="45.8043" gradientUnits="userSpaceOnUse">
<stop stop-color="#F5623A"/>
<stop offset="1" stop-color="#F4B12E"/>
</linearGradient>
<linearGradient id="paint12_linear" x1="527.903" y1="59.1068" x2="534.017" y2="34.4097" gradientUnits="userSpaceOnUse">
<stop stop-color="#E74314"/>
<stop offset="1" stop-color="#8F1A66"/>
</linearGradient>
<linearGradient id="paint13_linear" x1="533.997" y1="32.9875" x2="534.16" y2="31.2554" gradientUnits="userSpaceOnUse">
<stop stop-color="#E74314"/>
<stop offset="1" stop-color="#8F1A66"/>
</linearGradient>
<linearGradient id="paint14_linear" x1="530.188" y1="39.9283" x2="532.804" y2="37.1473" gradientUnits="userSpaceOnUse">
<stop stop-color="#E74314"/>
<stop offset="1" stop-color="#8F1A66"/>
</linearGradient>
<linearGradient id="paint15_linear" x1="541.235" y1="39.8504" x2="543.528" y2="37.1082" gradientUnits="userSpaceOnUse">
<stop stop-color="#E74314"/>
<stop offset="1" stop-color="#8F1A66"/>
</linearGradient>
<linearGradient id="paint16_linear" x1="548.472" y1="51.6085" x2="553.778" y2="41.61" gradientUnits="userSpaceOnUse">
<stop stop-color="#E74314"/>
<stop offset="1" stop-color="#8F1A66"/>
</linearGradient>
<linearGradient id="paint17_linear" x1="552.28" y1="55.8983" x2="561.321" y2="38.4482" gradientUnits="userSpaceOnUse">
<stop stop-color="#E74314"/>
<stop offset="1" stop-color="#8F1A66"/>
</linearGradient>
<linearGradient id="paint18_linear" x1="537.317" y1="30.1866" x2="549.819" y2="30.1866" gradientUnits="userSpaceOnUse">
<stop stop-color="#F5623A"/>
<stop offset="1" stop-color="#F4B12E"/>
</linearGradient>
<linearGradient id="paint19_linear" x1="521.319" y1="30.1866" x2="533.821" y2="30.1866" gradientUnits="userSpaceOnUse">
<stop stop-color="#F5623A"/>
<stop offset="1" stop-color="#F4B12E"/>
</linearGradient>
<linearGradient id="paint20_linear" x1="536.664" y1="40.2815" x2="542.983" y2="20.1296" gradientUnits="userSpaceOnUse">
<stop stop-color="#E74314"/>
<stop offset="1" stop-color="#8F1A66"/>
</linearGradient>
<linearGradient id="paint21_linear" x1="534.378" y1="58.6385" x2="536.345" y2="55.1774" gradientUnits="userSpaceOnUse">
<stop stop-color="#E74314"/>
<stop offset="1" stop-color="#8F1A66"/>
</linearGradient>
<linearGradient id="paint22_linear" x1="537.998" y1="60.7672" x2="540.076" y2="54.1383" gradientUnits="userSpaceOnUse">
<stop stop-color="#E74314"/>
<stop offset="1" stop-color="#8F1A66"/>
</linearGradient>
<linearGradient id="paint23_linear" x1="541.616" y1="33.3035" x2="543.611" y2="26.9397" gradientUnits="userSpaceOnUse">
<stop stop-color="#E74314"/>
<stop offset="1" stop-color="#8F1A66"/>
</linearGradient>
<linearGradient id="paint24_linear" x1="525.618" y1="33.3035" x2="527.613" y2="26.9397" gradientUnits="userSpaceOnUse">
<stop stop-color="#E74314"/>
<stop offset="1" stop-color="#8F1A66"/>
</linearGradient>
<linearGradient id="paint25_linear" x1="534.378" y1="62.2556" x2="536.373" y2="55.8919" gradientUnits="userSpaceOnUse">
<stop stop-color="#E74314"/>
<stop offset="1" stop-color="#8F1A66"/>
</linearGradient>
<linearGradient id="paint26_linear" x1="520.666" y1="40.2815" x2="526.985" y2="20.1296" gradientUnits="userSpaceOnUse">
<stop stop-color="#E74314"/>
<stop offset="1" stop-color="#8F1A66"/>
</linearGradient>
<linearGradient id="paint27_linear" x1="525.618" y1="50.0727" x2="526.552" y2="40.2598" gradientUnits="userSpaceOnUse">
<stop stop-color="#E74314"/>
<stop offset="1" stop-color="#8F1A66"/>
</linearGradient>
<linearGradient id="paint28_linear" x1="521.808" y1="50.1506" x2="525.638" y2="41.3291" gradientUnits="userSpaceOnUse">
<stop stop-color="#E74314"/>
<stop offset="1" stop-color="#8F1A66"/>
</linearGradient>
<linearGradient id="paint29_linear" x1="528.537" y1="63.5547" x2="529.33" y2="58.4207" gradientUnits="userSpaceOnUse">
<stop stop-color="#E74314"/>
<stop offset="1" stop-color="#8F1A66"/>
</linearGradient>
<linearGradient id="paint30_linear" x1="542.377" y1="46.8522" x2="543.208" y2="44.2006" gradientUnits="userSpaceOnUse">
<stop stop-color="#E74314"/>
<stop offset="1" stop-color="#8F1A66"/>
</linearGradient>
<linearGradient id="paint31_linear" x1="538.949" y1="46.8522" x2="539.78" y2="44.2006" gradientUnits="userSpaceOnUse">
<stop stop-color="#E74314"/>
<stop offset="1" stop-color="#8F1A66"/>
</linearGradient>
<linearGradient id="paint32_linear" x1="535.521" y1="46.8522" x2="536.352" y2="44.2006" gradientUnits="userSpaceOnUse">
<stop stop-color="#E74314"/>
<stop offset="1" stop-color="#8F1A66"/>
</linearGradient>
<linearGradient id="paint33_linear" x1="548.853" y1="47.4582" x2="549.001" y2="45.7235" gradientUnits="userSpaceOnUse">
<stop stop-color="#E74314"/>
<stop offset="1" stop-color="#8F1A66"/>
</linearGradient>
<linearGradient id="paint34_linear" x1="526.76" y1="37.1885" x2="528.922" y2="30.2945" gradientUnits="userSpaceOnUse">
<stop stop-color="#E74314"/>
<stop offset="1" stop-color="#8F1A66"/>
</linearGradient>
<linearGradient id="paint35_linear" x1="529.046" y1="35.8232" x2="532.204" y2="28.4367" gradientUnits="userSpaceOnUse">
<stop stop-color="#E74314"/>
<stop offset="1" stop-color="#8F1A66"/>
</linearGradient>
<linearGradient id="paint36_linear" x1="523.237" y1="63.3153" x2="529.248" y2="63.3153" gradientUnits="userSpaceOnUse">
<stop stop-color="#F5623A"/>
<stop offset="1" stop-color="#F4B12E"/>
</linearGradient>
<linearGradient id="paint37_linear" x1="539.711" y1="28.9493" x2="540.542" y2="26.2979" gradientUnits="userSpaceOnUse">
<stop stop-color="#E74314"/>
<stop offset="1" stop-color="#8F1A66"/>
</linearGradient>
<linearGradient id="paint38_linear" x1="546.186" y1="28.9493" x2="547.017" y2="26.2979" gradientUnits="userSpaceOnUse">
<stop stop-color="#E74314"/>
<stop offset="1" stop-color="#8F1A66"/>
</linearGradient>
<linearGradient id="paint39_linear" x1="539.711" y1="34.2828" x2="540.542" y2="31.6314" gradientUnits="userSpaceOnUse">
<stop stop-color="#E74314"/>
<stop offset="1" stop-color="#8F1A66"/>
</linearGradient>
<linearGradient id="paint40_linear" x1="523.714" y1="28.9493" x2="524.545" y2="26.2979" gradientUnits="userSpaceOnUse">
<stop stop-color="#E74314"/>
<stop offset="1" stop-color="#8F1A66"/>
</linearGradient>
<linearGradient id="paint41_linear" x1="530.188" y1="28.9493" x2="531.019" y2="26.2979" gradientUnits="userSpaceOnUse">
<stop stop-color="#E74314"/>
<stop offset="1" stop-color="#8F1A66"/>
</linearGradient>
<linearGradient id="paint42_linear" x1="523.714" y1="34.2828" x2="524.545" y2="31.6314" gradientUnits="userSpaceOnUse">
<stop stop-color="#E74314"/>
<stop offset="1" stop-color="#8F1A66"/>
</linearGradient>
<linearGradient id="paint43_linear" x1="546.186" y1="34.2828" x2="547.017" y2="31.6314" gradientUnits="userSpaceOnUse">
<stop stop-color="#E74314"/>
<stop offset="1" stop-color="#8F1A66"/>
</linearGradient>
<linearGradient id="paint44_linear" x1="598.454" y1="142.023" x2="633.876" y2="147.649" gradientUnits="userSpaceOnUse">
<stop stop-color="#F5623A"/>
<stop offset="1" stop-color="#F4B12E"/>
</linearGradient>
<linearGradient id="paint45_linear" x1="634.115" y1="156.331" x2="622.147" y2="130.636" gradientUnits="userSpaceOnUse">
<stop stop-color="#E64212"/>
<stop offset="1" stop-color="#8E1A66"/>
</linearGradient>
<linearGradient id="paint46_linear" x1="424.524" y1="94.5005" x2="459.468" y2="97.4088" gradientUnits="userSpaceOnUse">
<stop stop-color="#F5623A"/>
<stop offset="1" stop-color="#F4B12E"/>
</linearGradient>
<linearGradient id="paint47_linear" x1="153.164" y1="471.551" x2="161.691" y2="196.005" gradientUnits="userSpaceOnUse">
<stop stop-color="#FEFEFE"/>
<stop offset="0.277041" stop-color="#E74314"/>
<stop offset="1" stop-color="#C53232"/>
</linearGradient>
<linearGradient id="paint48_linear" x1="246.835" y1="324.535" x2="232.444" y2="317.273" gradientUnits="userSpaceOnUse">
<stop stop-color="#E74314"/>
<stop offset="1" stop-color="#8F1A66"/>
</linearGradient>
<linearGradient id="paint49_linear" x1="270.814" y1="275.219" x2="269.36" y2="285.385" gradientUnits="userSpaceOnUse">
<stop stop-color="#E74314"/>
<stop offset="1" stop-color="#8F1A66"/>
</linearGradient>
<linearGradient id="paint50_linear" x1="298.319" y1="336.42" x2="307.278" y2="343.861" gradientUnits="userSpaceOnUse">
<stop stop-color="#E74314"/>
<stop offset="1" stop-color="#8F1A66"/>
</linearGradient>
<linearGradient id="paint51_linear" x1="267.71" y1="222.039" x2="270.585" y2="231.63" gradientUnits="userSpaceOnUse">
<stop stop-color="#E74314"/>
<stop offset="1" stop-color="#8F1A66"/>
</linearGradient>
<linearGradient id="paint52_linear" x1="230.386" y1="161.595" x2="240.403" y2="167.51" gradientUnits="userSpaceOnUse">
<stop stop-color="#E74314"/>
<stop offset="1" stop-color="#8F1A66"/>
</linearGradient>
</defs>
</svg>
