<svg width="60" height="60" viewBox="0 0 60 60" fill="none" xmlns="http://www.w3.org/2000/svg">
<g clip-path="url(#clip0)">
<path d="M3.0733 49.5402L0 50.6535V51.0852C0 52.0252 0.148159 52.9394 0.419176 53.7903C0.486972 53.9849 0.558901 54.184 0.63083 54.3786C0.639266 54.383 0.639266 54.3914 0.643398 54.3957C1.52392 56.5842 3.24676 58.3409 5.41405 59.2595C5.42696 59.2595 5.43522 59.2679 5.44796 59.2722C5.66376 59.3653 5.88418 59.4456 6.11683 59.5177L9.58815 57.7483L60 32.049V28.9714L3.0733 49.5402ZM0.419176 53.7903C0.469942 54.002 0.533439 54.184 0.596935 54.3322C0.596935 54.3322 0.609499 54.3534 0.63083 54.3786C0.558901 54.184 0.486972 53.9849 0.419176 53.7903ZM48.6637 60.0002H51.1359C56.0294 60.0002 60 56.0254 60 51.1319V45.7178L48.6637 60.0002ZM22.1052 60.0002H36.3579L60 40.5999V36.5996L22.1052 60.0002ZM0 32.9762V41.1841L60 25.403V22.6218L0 32.9762ZM12.1955 9.4062H11.6114V10.782H12.238C12.5384 10.782 12.7671 10.7227 12.9323 10.5999C13.093 10.4772 13.1734 10.2951 13.1734 10.0539C13.1734 9.62208 12.8475 9.4062 12.1955 9.4062ZM13.0548 12.5048C12.8814 12.3694 12.6315 12.3016 12.3013 12.3016H11.6114V13.9145H12.3438C12.9913 13.9145 13.3173 13.6435 13.3173 13.0932C13.3173 12.8392 13.2284 12.6445 13.0548 12.5048ZM13.0548 12.5048C12.8814 12.3694 12.6315 12.3016 12.3013 12.3016H11.6114V13.9145H12.3438C12.9913 13.9145 13.3173 13.6435 13.3173 13.0932C13.3173 12.8392 13.2284 12.6445 13.0548 12.5048ZM12.1955 9.4062H11.6114V10.782H12.238C12.5384 10.782 12.7671 10.7227 12.9323 10.5999C13.093 10.4772 13.1734 10.2951 13.1734 10.0539C13.1734 9.62208 12.8475 9.4062 12.1955 9.4062ZM12.1955 9.4062H11.6114V10.782H12.238C12.5384 10.782 12.7671 10.7227 12.9323 10.5999C13.093 10.4772 13.1734 10.2951 13.1734 10.0539C13.1734 9.62208 12.8475 9.4062 12.1955 9.4062ZM13.0548 12.5048C12.8814 12.3694 12.6315 12.3016 12.3013 12.3016H11.6114V13.9145H12.3438C12.9913 13.9145 13.3173 13.6435 13.3173 13.0932C13.3173 12.8392 13.2284 12.6445 13.0548 12.5048ZM25.9362 10.02C25.6569 9.68135 25.2336 9.51202 24.6662 9.51202H24.0609V13.8171H24.5265C25.1574 13.8171 25.6187 13.6308 25.9107 13.2668C26.2072 12.8985 26.3554 12.3397 26.3554 11.5862C26.3554 10.8835 26.2156 10.3586 25.9362 10.02ZM25.9362 10.02C25.6569 9.68135 25.2336 9.51202 24.6662 9.51202H24.0609V13.8171H24.5265C25.1574 13.8171 25.6187 13.6308 25.9107 13.2668C26.2072 12.8985 26.3554 12.3397 26.3554 11.5862C26.3554 10.8835 26.2156 10.3586 25.9362 10.02ZM13.0548 12.5048C12.8814 12.3694 12.6315 12.3016 12.3013 12.3016H11.6114V13.9145H12.3438C12.9913 13.9145 13.3173 13.6435 13.3173 13.0932C13.3173 12.8392 13.2284 12.6445 13.0548 12.5048ZM12.1955 9.4062H11.6114V10.782H12.238C12.5384 10.782 12.7671 10.7227 12.9323 10.5999C13.093 10.4772 13.1734 10.2951 13.1734 10.0539C13.1734 9.62208 12.8475 9.4062 12.1955 9.4062ZM12.9323 10.5999C13.093 10.4772 13.1734 10.2951 13.1734 10.0539C13.1734 9.62208 12.8475 9.4062 12.1955 9.4062H11.6114V10.782H12.238C12.5384 10.782 12.7671 10.7227 12.9323 10.5999ZM12.3013 12.3016H11.6114V13.9145H12.3438C12.9913 13.9145 13.3173 13.6435 13.3173 13.0932C13.3173 12.8392 13.2284 12.6445 13.0548 12.5048C12.8814 12.3694 12.6315 12.3016 12.3013 12.3016ZM24.6662 9.51202H24.0609V13.8171H24.5265C25.1574 13.8171 25.6187 13.6308 25.9107 13.2668C26.2072 12.8985 26.3554 12.3397 26.3554 11.5862C26.3554 10.8835 26.2156 10.3586 25.9362 10.02C25.6569 9.68135 25.2336 9.51202 24.6662 9.51202ZM40.2103 10.0242C40.1004 9.57975 40.0238 9.26227 39.9899 9.06755C39.9607 9.24957 39.897 9.54165 39.8039 9.95226C39.7109 10.3629 39.5076 11.1714 39.186 12.3736H40.8197L40.4898 11.1121C40.4132 10.8327 40.3203 10.4687 40.2103 10.0242ZM47.3007 10.2824C47.4573 10.401 47.8806 10.6211 48.5706 10.9343C49.231 11.2307 49.6924 11.5524 49.9506 11.8953C50.2088 12.2339 50.3358 12.6657 50.3358 13.1864C50.3358 13.6605 50.2131 14.0838 49.9718 14.4521C49.7305 14.8246 49.3834 15.1124 48.9262 15.3156C48.4733 15.5188 47.9357 15.6246 47.3219 15.6246C46.8139 15.6246 46.3821 15.5865 46.035 15.5146C45.6879 15.4426 45.3281 15.3198 44.9556 15.1378V13.2879C45.3492 13.4911 45.7598 13.652 46.1874 13.7663C46.6149 13.8806 47.0086 13.9356 47.3684 13.9356C47.6732 13.9356 47.9018 13.8806 48.0457 13.7748C48.1896 13.6689 48.2616 13.5335 48.2616 13.3641C48.2616 13.2583 48.232 13.1652 48.1727 13.089C48.1134 13.0086 48.0203 12.9281 47.8933 12.8477C47.7663 12.7673 47.4277 12.6022 46.8731 12.3524C46.3694 12.1281 45.9969 11.9037 45.7429 11.6921C45.4932 11.4762 45.3069 11.2307 45.1884 10.9555C45.0656 10.6804 45.0063 10.3502 45.0063 9.97343C45.0063 9.2665 45.2646 8.71196 45.781 8.31829C46.2932 7.92037 47.0001 7.72565 47.9018 7.72565C48.6976 7.72565 49.5104 7.90767 50.3358 8.27596L49.7009 9.8803C48.9812 9.55012 48.359 9.38503 47.8383 9.38503C47.5674 9.38503 47.3727 9.43159 47.2499 9.52472C47.1271 9.62208 47.0679 9.73638 47.0679 9.8803C47.0679 10.0285 47.1441 10.1639 47.3007 10.2824ZM41.6327 15.5188L41.2516 14.0795H38.7585L38.3686 15.5188H36.0872L38.5932 7.80185H41.3616L43.9015 15.5188H41.6327ZM34.5166 9.49932H32.0318V10.71H34.3348V12.3736H32.0318V13.8256H34.5166V15.5188H29.9535V7.83571H34.5166V9.49932ZM27.4517 14.4775C26.7448 15.1717 25.75 15.5188 24.4715 15.5188H21.9867V7.83571H24.6451C25.8768 7.83571 26.8336 8.14896 27.5024 8.77969C28.1754 9.41043 28.5099 10.3205 28.5099 11.5143C28.5099 12.7969 28.1545 13.7832 27.4517 14.4775ZM19.5994 15.5188H17.5123V7.83571H19.5994V15.5188ZM14.6679 14.9177C14.147 15.3156 13.4317 15.5188 12.53 15.5188H9.53722V7.83571H12.2168C13.2624 7.83571 14.0371 7.9881 14.545 8.29712C15.0489 8.61037 15.3028 9.09295 15.3028 9.74908C15.3028 10.1766 15.1925 10.5449 14.9724 10.8497C14.7524 11.1545 14.4604 11.3534 14.1004 11.4381V11.4931C14.5746 11.6201 14.9217 11.8275 15.1333 12.1238C15.3493 12.4159 15.4551 12.7969 15.4551 13.2668C15.4551 13.9652 15.1925 14.5155 14.6679 14.9177ZM51.1359 0.000236511H8.86403C3.97052 0.000236511 0 3.96666 0 8.86013V24.0994L60 19.3666V8.86013C60 3.96666 56.0294 0.000236511 51.1359 0.000236511ZM12.9323 10.5999C13.093 10.4772 13.1734 10.2951 13.1734 10.0539C13.1734 9.62208 12.8475 9.4062 12.1955 9.4062H11.6114V10.782H12.238C12.5384 10.782 12.7671 10.7227 12.9323 10.5999ZM13.0548 12.5048C12.8814 12.3694 12.6315 12.3016 12.3013 12.3016H11.6114V13.9145H12.3438C12.9913 13.9145 13.3173 13.6435 13.3173 13.0932C13.3173 12.8392 13.2284 12.6445 13.0548 12.5048ZM25.9362 10.02C25.6569 9.68135 25.2336 9.51202 24.6662 9.51202H24.0609V13.8171H24.5265C25.1574 13.8171 25.6187 13.6308 25.9107 13.2668C26.2072 12.8985 26.3554 12.3397 26.3554 11.5862C26.3554 10.8835 26.2156 10.3586 25.9362 10.02ZM40.4898 11.1121C40.4132 10.8327 40.3203 10.4687 40.2103 10.0242C40.1004 9.57975 40.0238 9.26227 39.9899 9.06755C39.9607 9.24957 39.897 9.54165 39.8039 9.95226C39.7109 10.3629 39.5076 11.1714 39.186 12.3736H40.8197L40.4898 11.1121ZM40.4898 11.1121C40.4132 10.8327 40.3203 10.4687 40.2103 10.0242C40.1004 9.57975 40.0238 9.26227 39.9899 9.06755C39.9607 9.24957 39.897 9.54165 39.8039 9.95226C39.7109 10.3629 39.5076 11.1714 39.186 12.3736H40.8197L40.4898 11.1121ZM25.9362 10.02C25.6569 9.68135 25.2336 9.51202 24.6662 9.51202H24.0609V13.8171H24.5265C25.1574 13.8171 25.6187 13.6308 25.9107 13.2668C26.2072 12.8985 26.3554 12.3397 26.3554 11.5862C26.3554 10.8835 26.2156 10.3586 25.9362 10.02ZM13.0548 12.5048C12.8814 12.3694 12.6315 12.3016 12.3013 12.3016H11.6114V13.9145H12.3438C12.9913 13.9145 13.3173 13.6435 13.3173 13.0932C13.3173 12.8392 13.2284 12.6445 13.0548 12.5048ZM12.1955 9.4062H11.6114V10.782H12.238C12.5384 10.782 12.7671 10.7227 12.9323 10.5999C13.093 10.4772 13.1734 10.2951 13.1734 10.0539C13.1734 9.62208 12.8475 9.4062 12.1955 9.4062ZM12.1955 9.4062H11.6114V10.782H12.238C12.5384 10.782 12.7671 10.7227 12.9323 10.5999C13.093 10.4772 13.1734 10.2951 13.1734 10.0539C13.1734 9.62208 12.8475 9.4062 12.1955 9.4062ZM13.0548 12.5048C12.8814 12.3694 12.6315 12.3016 12.3013 12.3016H11.6114V13.9145H12.3438C12.9913 13.9145 13.3173 13.6435 13.3173 13.0932C13.3173 12.8392 13.2284 12.6445 13.0548 12.5048ZM25.9362 10.02C25.6569 9.68135 25.2336 9.51202 24.6662 9.51202H24.0609V13.8171H24.5265C25.1574 13.8171 25.6187 13.6308 25.9107 13.2668C26.2072 12.8985 26.3554 12.3397 26.3554 11.5862C26.3554 10.8835 26.2156 10.3586 25.9362 10.02ZM25.9362 10.02C25.6569 9.68135 25.2336 9.51202 24.6662 9.51202H24.0609V13.8171H24.5265C25.1574 13.8171 25.6187 13.6308 25.9107 13.2668C26.2072 12.8985 26.3554 12.3397 26.3554 11.5862C26.3554 10.8835 26.2156 10.3586 25.9362 10.02ZM13.0548 12.5048C12.8814 12.3694 12.6315 12.3016 12.3013 12.3016H11.6114V13.9145H12.3438C12.9913 13.9145 13.3173 13.6435 13.3173 13.0932C13.3173 12.8392 13.2284 12.6445 13.0548 12.5048ZM12.1955 9.4062H11.6114V10.782H12.238C12.5384 10.782 12.7671 10.7227 12.9323 10.5999C13.093 10.4772 13.1734 10.2951 13.1734 10.0539C13.1734 9.62208 12.8475 9.4062 12.1955 9.4062ZM12.1955 9.4062H11.6114V10.782H12.238C12.5384 10.782 12.7671 10.7227 12.9323 10.5999C13.093 10.4772 13.1734 10.2951 13.1734 10.0539C13.1734 9.62208 12.8475 9.4062 12.1955 9.4062ZM13.0548 12.5048C12.8814 12.3694 12.6315 12.3016 12.3013 12.3016H11.6114V13.9145H12.3438C12.9913 13.9145 13.3173 13.6435 13.3173 13.0932C13.3173 12.8392 13.2284 12.6445 13.0548 12.5048ZM13.0548 12.5048C12.8814 12.3694 12.6315 12.3016 12.3013 12.3016H11.6114V13.9145H12.3438C12.9913 13.9145 13.3173 13.6435 13.3173 13.0932C13.3173 12.8392 13.2284 12.6445 13.0548 12.5048ZM12.1955 9.4062H11.6114V10.782H12.238C12.5384 10.782 12.7671 10.7227 12.9323 10.5999C13.093 10.4772 13.1734 10.2951 13.1734 10.0539C13.1734 9.62208 12.8475 9.4062 12.1955 9.4062Z" fill="white"/>
</g>
<defs>
<clipPath id="clip0">
<rect width="60" height="60" fill="white"/>
</clipPath>
</defs>
</svg>
